<?xml version="1.0" encoding="UTF-8" standalone="no"?>
<!-- Created with Inkscape (http://www.inkscape.org/) -->

<svg
   width="78.240593mm"
   height="21.603882mm"
   viewBox="0 0 78.240593 21.603882"
   version="1.1"
   id="svg201116"
   sodipodi:docname="logo.svg"
   xml:space="preserve"
   inkscape:version="1.2.1 (9c6d41e410, 2022-07-14)"
   xmlns:inkscape="http://www.inkscape.org/namespaces/inkscape"
   xmlns:sodipodi="http://sodipodi.sourceforge.net/DTD/sodipodi-0.dtd"
   xmlns="http://www.w3.org/2000/svg"
   xmlns:svg="http://www.w3.org/2000/svg"><sodipodi:namedview
     id="namedview43"
     pagecolor="#ffffff"
     bordercolor="#000000"
     borderopacity="0.25"
     inkscape:showpageshadow="2"
     inkscape:pageopacity="0.0"
     inkscape:pagecheckerboard="0"
     inkscape:deskcolor="#d1d1d1"
     inkscape:document-units="mm"
     showgrid="false"
     inkscape:zoom="2.3514288"
     inkscape:cx="155.65005"
     inkscape:cy="43.803156"
     inkscape:window-width="1920"
     inkscape:window-height="1011"
     inkscape:window-x="0"
     inkscape:window-y="0"
     inkscape:window-maximized="1"
     inkscape:current-layer="svg201116" /><defs
     id="defs201113" /><g
     id="g1022"
     transform="translate(-3.2630873,-1.6878037)"><g
       id="g981"
       transform="matrix(1.1844063,0,0,1.1844063,-8.089047,-3.0984519)"><g
         id="g544"
         transform="matrix(0.81355932,0,0,0.81355932,3.2630869,1.6878039)"><path
           d="m 50.503587,12.818545 h 1.01762 v 0.393726 h -1.01762 z m 0.0363,1.166034 h -0.49064 v -2.120062 h 1.60216 v 0.393726 h -1.11152 z"
           id="path201294"
           style="font-weight:bold;font-size:3.02866px;font-family:Montserrat;-inkscape-font-specification:'Montserrat, Bold';fill:#9bb49a;stroke-width:0.252388" /><path
           d="m 53.305107,13.984579 v -2.120062 h 0.49064 v 2.120062 z"
           id="path201296"
           style="font-weight:bold;font-size:3.02866px;font-family:Montserrat;-inkscape-font-specification:'Montserrat, Bold';fill:#9bb49a;stroke-width:0.252388" /><path
           d="m 56.430687,14.020923 q -0.25441,0 -0.48761,-0.06663 -0.23321,-0.06966 -0.37556,-0.178691 l 0.16658,-0.369497 q 0.13629,0.09692 0.32104,0.160519 0.18778,0.06057 0.37858,0.06057 0.14538,0 0.23321,-0.02726 0.0909,-0.03029 0.13326,-0.08177 0.0424,-0.05149 0.0424,-0.118118 0,-0.0848 -0.0666,-0.133261 -0.0666,-0.05149 -0.17566,-0.08177 -0.10903,-0.03332 -0.2423,-0.06057 -0.13023,-0.03029 -0.26349,-0.07269 -0.13023,-0.0424 -0.23926,-0.109032 -0.10903,-0.06663 -0.17869,-0.175662 -0.0666,-0.109032 -0.0666,-0.278637 0,-0.181719 0.0969,-0.330124 0.1,-0.151433 0.29681,-0.239264 0.19989,-0.09086 0.49973,-0.09086 0.19989,0 0.39373,0.04846 0.19383,0.04543 0.34223,0.139318 l -0.15143,0.372525 q -0.1484,-0.0848 -0.29681,-0.124175 -0.1484,-0.0424 -0.29075,-0.0424 -0.14235,0 -0.23321,0.03332 -0.0909,0.03332 -0.13023,0.08783 -0.0394,0.05149 -0.0394,0.121146 0,0.08177 0.0666,0.133261 0.0666,0.04846 0.17566,0.07875 0.10903,0.03029 0.23927,0.06057 0.13326,0.03029 0.26349,0.06966 0.13326,0.03937 0.24229,0.106003 0.10903,0.06663 0.17567,0.175662 0.0697,0.109032 0.0697,0.275608 0,0.178691 -0.0999,0.327095 -0.0999,0.148405 -0.29984,0.239264 -0.19686,0.09086 -0.49973,0.09086 z"
           id="path201298"
           style="font-weight:bold;font-size:3.02866px;font-family:Montserrat;-inkscape-font-specification:'Montserrat, Bold';fill:#9bb49a;stroke-width:0.252388" /><path
           d="m 59.132257,13.984579 v -2.120062 h 0.49064 v 2.120062 z"
           id="path201300"
           style="font-weight:bold;font-size:3.02866px;font-family:Montserrat;-inkscape-font-specification:'Montserrat, Bold';fill:#9bb49a;stroke-width:0.252388" /><path
           d="m 62.590997,14.020923 q -0.25138,0 -0.46641,-0.08177 -0.21201,-0.08177 -0.3695,-0.230178 -0.15446,-0.148404 -0.24229,-0.348296 -0.0848,-0.199891 -0.0848,-0.436127 0,-0.236235 0.0848,-0.436127 0.0878,-0.199891 0.24532,-0.348296 0.15749,-0.148404 0.3695,-0.230178 0.212,-0.08177 0.46035,-0.08177 0.25138,0 0.46036,0.08177 0.212,0.08177 0.36647,0.230178 0.15749,0.148405 0.24532,0.348296 0.0878,0.196863 0.0878,0.436127 0,0.236236 -0.0878,0.439156 -0.0878,0.199892 -0.24532,0.348296 -0.15447,0.145376 -0.36647,0.227149 -0.20898,0.08177 -0.45733,0.08177 z m -0.003,-0.417955 q 0.14235,0 0.26047,-0.04846 0.12114,-0.04846 0.212,-0.139319 0.0909,-0.09086 0.13932,-0.215035 0.0515,-0.124175 0.0515,-0.275608 0,-0.151433 -0.0515,-0.275608 -0.0485,-0.124175 -0.13932,-0.215035 -0.0878,-0.09086 -0.20897,-0.139318 -0.12115,-0.04846 -0.2635,-0.04846 -0.14234,0 -0.26349,0.04846 -0.11812,0.04846 -0.20898,0.139318 -0.0909,0.09086 -0.14235,0.215035 -0.0485,0.124175 -0.0485,0.275608 0,0.148405 0.0485,0.275608 0.0515,0.124175 0.13932,0.215035 0.0909,0.09086 0.21201,0.139319 0.12115,0.04846 0.26349,0.04846 z"
           id="path201302"
           style="font-weight:bold;font-size:3.02866px;font-family:Montserrat;-inkscape-font-specification:'Montserrat, Bold';fill:#9bb49a;stroke-width:0.252388" /><path
           d="M 65.967957,13.984579 V 12.2643 h -0.67842 v -0.399783 h 1.84749 V 12.2643 h -0.67842 v 1.720279 z"
           id="path201304"
           style="font-weight:bold;font-size:3.02866px;font-family:Montserrat;-inkscape-font-specification:'Montserrat, Bold';fill:#9bb49a;stroke-width:0.252388" /><path
           d="m 69.248017,12.718599 h 1.02065 v 0.381612 h -1.02065 z m 0.0363,0.872254 h 1.15392 v 0.393726 h -1.64153 v -2.120062 h 1.60216 v 0.393726 h -1.11455 z"
           id="path201306"
           style="font-weight:bold;font-size:3.02866px;font-family:Montserrat;-inkscape-font-specification:'Montserrat, Bold';fill:#9bb49a;stroke-width:0.252388" /><path
           d="m 72.297887,13.984579 v -2.120062 h 0.91768 q 0.2847,0 0.49065,0.09389 0.20595,0.09086 0.31801,0.263493 0.11206,0.172634 0.11206,0.411898 0,0.236235 -0.11206,0.408869 -0.11206,0.169605 -0.31801,0.260465 -0.20595,0.09086 -0.49065,0.09086 h -0.6451 l 0.21806,-0.215035 v 0.805623 z m 1.34775,0 -0.53001,-0.769279 h 0.52396 l 0.53607,0.769279 z m -0.85711,-0.751107 -0.21806,-0.230179 h 0.61785 q 0.22715,0 0.33921,-0.09692 0.11206,-0.09995 0.11206,-0.272579 0,-0.175662 -0.11206,-0.272579 -0.11206,-0.09692 -0.33921,-0.09692 h -0.61785 l 0.21806,-0.233206 z"
           id="path201308"
           style="font-weight:bold;font-size:3.02866px;font-family:Montserrat;-inkscape-font-specification:'Montserrat, Bold';fill:#9bb49a;stroke-width:0.252388" /><path
           d="m 75.723307,13.984579 0.94494,-2.120062 h 0.48459 l 0.94797,2.120062 h -0.51488 l -0.77533,-1.871712 h 0.19383 l -0.77836,1.871712 z m 0.47247,-0.454299 0.13023,-0.372525 h 1.09032 l 0.13326,0.372525 z"
           id="path201310"
           style="font-weight:bold;font-size:3.02866px;font-family:Montserrat;-inkscape-font-specification:'Montserrat, Bold';fill:#9bb49a;stroke-width:0.252388" /><path
           d="m 79.751437,13.984579 v -2.120062 h 0.91769 q 0.28469,0 0.49064,0.09389 0.20595,0.09086 0.31801,0.263493 0.11206,0.172634 0.11206,0.411898 0,0.236235 -0.11206,0.408869 -0.11206,0.172634 -0.31801,0.266522 -0.20595,0.09086 -0.49064,0.09086 h -0.64511 l 0.21807,-0.221092 v 0.805623 z m 0.49065,-0.751107 -0.21807,-0.233207 h 0.61785 q 0.22715,0 0.33921,-0.09692 0.11206,-0.09692 0.11206,-0.269551 0,-0.175662 -0.11206,-0.272579 -0.11206,-0.09692 -0.33921,-0.09692 h -0.61785 l 0.21807,-0.233206 z"
           id="path201312"
           style="font-weight:bold;font-size:3.02866px;font-family:Montserrat;-inkscape-font-specification:'Montserrat, Bold';fill:#9bb49a;stroke-width:0.252388" /><path
           d="m 83.304077,13.984579 v -2.120062 h 0.49065 v 2.120062 z"
           id="path201314"
           style="font-weight:bold;font-size:3.02866px;font-family:Montserrat;-inkscape-font-specification:'Montserrat, Bold';fill:#9bb49a;stroke-width:0.252388" /><path
           d="m 85.454427,13.984579 0.94495,-2.120062 h 0.48458 l 0.94797,2.120062 h -0.51487 l -0.77534,-1.871712 h 0.19384 l -0.77837,1.871712 z m 0.47247,-0.454299 0.13024,-0.372525 h 1.09031 l 0.13327,0.372525 z"
           id="path201316"
           style="font-weight:bold;font-size:3.02866px;font-family:Montserrat;-inkscape-font-specification:'Montserrat, Bold';fill:#9bb49a;stroke-width:0.252388" /><path
           d="m 50.715587,20.078235 q -0.23321,0 -0.41493,-0.07572 -0.18171,-0.07572 -0.28772,-0.205949 -0.106,-0.130233 -0.106,-0.299838 0,-0.15749 0.0697,-0.281665 0.0697,-0.127204 0.22109,-0.236235 0.15143,-0.112061 0.38464,-0.218064 0.16961,-0.07874 0.26652,-0.139318 0.0969,-0.06057 0.13629,-0.115089 0.0394,-0.05755 0.0394,-0.115089 0,-0.07875 -0.0545,-0.127204 -0.0515,-0.04846 -0.15446,-0.04846 -0.10903,0 -0.16961,0.05452 -0.0606,0.05452 -0.0606,0.139319 0,0.04543 0.0182,0.09086 0.0182,0.0424 0.0697,0.09995 0.0515,0.05452 0.14538,0.142347 l 1.11757,1.035802 -0.25743,0.299837 -1.23267,-1.144833 q -0.106,-0.09692 -0.1696,-0.18172 -0.0636,-0.0848 -0.0939,-0.166576 -0.0273,-0.08177 -0.0273,-0.169605 0,-0.154462 0.0818,-0.27258 0.0818,-0.118117 0.23018,-0.181719 0.14841,-0.06663 0.3483,-0.06663 0.18475,0 0.31801,0.06057 0.13629,0.05754 0.212,0.166576 0.0787,0.109032 0.0787,0.260465 0,0.133261 -0.0666,0.245321 -0.0666,0.109032 -0.20898,0.205949 -0.13932,0.09692 -0.36647,0.196863 -0.15446,0.06966 -0.24532,0.13629 -0.0878,0.0636 -0.1272,0.130232 -0.0394,0.06663 -0.0394,0.148404 0,0.07572 0.0454,0.13629 0.0485,0.06057 0.13326,0.09389 0.0848,0.03332 0.1999,0.03332 0.18474,0 0.33921,-0.0848 0.15446,-0.08783 0.26046,-0.257436 0.10903,-0.172634 0.15446,-0.417955 l 0.37859,0.118118 q -0.0636,0.308923 -0.22715,0.536073 -0.16355,0.227149 -0.40282,0.351324 -0.23926,0.124175 -0.53607,0.124175 z"
           id="path201319"
           style="font-weight:bold;font-size:3.02866px;font-family:Montserrat;-inkscape-font-specification:'Montserrat, Bold';fill:#9bb49a;stroke-width:0.252388" /><path
           d="m 53.292997,20.041891 0.94494,-2.120062 h 0.48458 l 0.94797,2.120062 h -0.51487 l -0.77534,-1.871712 h 0.19384 l -0.77837,1.871712 z m 0.47247,-0.454299 0.13023,-0.372525 h 1.09032 l 0.13326,0.372525 z"
           id="path201321"
           style="font-weight:bold;font-size:3.02866px;font-family:Montserrat;-inkscape-font-specification:'Montserrat, Bold';fill:#9bb49a;stroke-width:0.252388" /><path
           d="m 58.335717,20.078235 q -0.24532,0 -0.45733,-0.07874 -0.20897,-0.08177 -0.36343,-0.230178 -0.15447,-0.148404 -0.2423,-0.348296 -0.0848,-0.199892 -0.0848,-0.439156 0,-0.239264 0.0848,-0.439155 0.0878,-0.199892 0.2423,-0.348296 0.15749,-0.148405 0.36646,-0.22715 0.20898,-0.08177 0.45733,-0.08177 0.27561,0 0.4967,0.09692 0.22412,0.09389 0.37556,0.278637 l -0.31499,0.290752 q -0.10903,-0.124176 -0.24229,-0.184749 -0.13326,-0.0636 -0.29075,-0.0636 -0.1484,0 -0.27258,0.04846 -0.12417,0.04846 -0.21503,0.139318 -0.0909,0.09086 -0.14235,0.215035 -0.0485,0.124175 -0.0485,0.275608 0,0.151433 0.0485,0.275608 0.0515,0.124175 0.14235,0.215035 0.0909,0.09086 0.21503,0.139319 0.12418,0.04846 0.27258,0.04846 0.15749,0 0.29075,-0.06057 0.13326,-0.0636 0.24229,-0.190806 l 0.31499,0.290752 q -0.15144,0.184748 -0.37556,0.281665 -0.22109,0.09692 -0.49973,0.09692 z"
           id="path201323"
           style="font-weight:bold;font-size:3.02866px;font-family:Montserrat;-inkscape-font-specification:'Montserrat, Bold';fill:#9bb49a;stroke-width:0.252388" /><path
           d="m 61.888357,20.078235 q -0.45127,0 -0.70568,-0.251379 -0.2544,-0.251378 -0.2544,-0.717792 v -1.187235 h 0.49064 v 1.169063 q 0,0.302866 0.12418,0.436127 0.12417,0.133261 0.34829,0.133261 0.22412,0 0.3483,-0.133261 0.12417,-0.133261 0.12417,-0.436127 v -1.169063 h 0.48459 v 1.187235 q 0,0.466414 -0.25441,0.717792 -0.25441,0.251379 -0.70568,0.251379 z"
           id="path201325"
           style="font-weight:bold;font-size:3.02866px;font-family:Montserrat;-inkscape-font-specification:'Montserrat, Bold';fill:#9bb49a;stroke-width:0.252388" /><path
           d="m 64.774687,20.041891 v -2.120062 h 0.91768 q 0.2847,0 0.49065,0.09389 0.20594,0.09086 0.31801,0.263493 0.11206,0.172634 0.11206,0.411898 0,0.236235 -0.11206,0.408869 -0.11207,0.172634 -0.31801,0.266522 -0.20595,0.09086 -0.49065,0.09086 h -0.6451 l 0.21806,-0.221092 v 0.805623 z m 0.49064,-0.751107 -0.21806,-0.233207 h 0.61784 q 0.22715,0 0.33921,-0.09692 0.11207,-0.09692 0.11207,-0.269551 0,-0.175662 -0.11207,-0.272579 -0.11206,-0.09692 -0.33921,-0.09692 h -0.61784 l 0.21806,-0.233206 z"
           id="path201327"
           style="font-weight:bold;font-size:3.02866px;font-family:Montserrat;-inkscape-font-specification:'Montserrat, Bold';fill:#9bb49a;stroke-width:0.252388" /><path
           d="m 69.269217,20.078235 q -0.45127,0 -0.70568,-0.251379 -0.2544,-0.251378 -0.2544,-0.717792 v -1.187235 h 0.49064 v 1.169063 q 0,0.302866 0.12417,0.436127 0.12418,0.133261 0.3483,0.133261 0.22412,0 0.3483,-0.133261 0.12417,-0.133261 0.12417,-0.436127 v -1.169063 h 0.48459 v 1.187235 q 0,0.466414 -0.25441,0.717792 -0.25441,0.251379 -0.70568,0.251379 z"
           id="path201329"
           style="font-weight:bold;font-size:3.02866px;font-family:Montserrat;-inkscape-font-specification:'Montserrat, Bold';fill:#9bb49a;stroke-width:0.252388" /><path
           d="m 72.155557,20.041891 v -2.120062 h 0.40584 l 1.25083,1.526445 h -0.19686 v -1.526445 h 0.48459 v 2.120062 h -0.40282 l -1.25386,-1.526444 h 0.19686 v 1.526444 z"
           id="path201331"
           style="font-weight:bold;font-size:3.02866px;font-family:Montserrat;-inkscape-font-specification:'Montserrat, Bold';fill:#9bb49a;stroke-width:0.252388" /><path
           d="m 76.507747,20.041891 v -1.720279 h -0.67842 v -0.399783 h 1.84748 v 0.399783 h -0.67842 v 1.720279 z"
           id="path201333"
           style="font-weight:bold;font-size:3.02866px;font-family:Montserrat;-inkscape-font-specification:'Montserrat, Bold';fill:#9bb49a;stroke-width:0.252388" /><path
           d="m 80.278447,20.078235 q -0.45127,0 -0.70567,-0.251379 -0.25441,-0.251378 -0.25441,-0.717792 v -1.187235 h 0.49064 v 1.169063 q 0,0.302866 0.12418,0.436127 0.12417,0.133261 0.34829,0.133261 0.22412,0 0.3483,-0.133261 0.12417,-0.133261 0.12417,-0.436127 v -1.169063 h 0.48459 v 1.187235 q 0,0.466414 -0.25441,0.717792 -0.25441,0.251379 -0.70568,0.251379 z"
           id="path201335"
           style="font-weight:bold;font-size:3.02866px;font-family:Montserrat;-inkscape-font-specification:'Montserrat, Bold';fill:#9bb49a;stroke-width:0.252388" /><path
           d="m 83.164767,20.041891 v -2.120062 h 0.91769 q 0.28469,0 0.49064,0.09389 0.20595,0.09086 0.31801,0.263493 0.11206,0.172634 0.11206,0.411898 0,0.236235 -0.11206,0.408869 -0.11206,0.169605 -0.31801,0.260465 -0.20595,0.09086 -0.49064,0.09086 h -0.64511 l 0.21807,-0.215035 v 0.805623 z m 1.34776,0 -0.53002,-0.769279 h 0.52396 l 0.53607,0.769279 z m -0.85711,-0.751107 -0.21807,-0.230179 h 0.61785 q 0.22715,0 0.33921,-0.09692 0.11206,-0.09994 0.11206,-0.272579 0,-0.175662 -0.11206,-0.272579 -0.11206,-0.09692 -0.33921,-0.09692 h -0.61785 l 0.21807,-0.233206 z"
           id="path201337"
           style="font-weight:bold;font-size:3.02866px;font-family:Montserrat;-inkscape-font-specification:'Montserrat, Bold';fill:#9bb49a;stroke-width:0.252388" /><path
           d="m 86.590187,20.041891 0.94494,-2.120062 h 0.48459 l 0.94797,2.120062 h -0.51487 l -0.77534,-1.871712 h 0.19383 l -0.77836,1.871712 z m 0.47247,-0.454299 0.13023,-0.372525 h 1.09032 l 0.13326,0.372525 z"
           id="path201339"
           style="font-weight:bold;font-size:3.02866px;font-family:Montserrat;-inkscape-font-specification:'Montserrat, Bold';fill:#9bb49a;stroke-width:0.252388" /></g></g><g
       id="g955"><path
         d="m 9.3113041,12.079629 q -0.277789,0.06313 -0.4924442,0.06313 -0.618711,0 -1.2374229,-0.429309 -0.4419368,-0.340923 -0.8459935,-1.010142 -0.050506,-0.08839 -0.101014,-0.176775 -0.037879,-0.08839 -0.075759,-0.151521 -0.037879,-0.08839 -0.1388949,-0.265162 0,-0.101014 -0.025253,-0.1262675 Q 6.12936,9.5795258 5.8389446,8.7840397 q 0,-0.075759 0.012626,-0.1136412 0,-0.063132 0.050506,-0.1641478 0.1136412,-0.1641478 0.277789,-0.1641478 0.1767742,0 0.2651617,0.088387 0.4166832,-0.1010148 0.656592,-0.3282964 0.025253,-0.012626 0.063132,-0.025253 0.037879,-0.025253 0.075759,-0.050506 0.050506,-0.025253 0.1010148,-0.050506 0.063132,-0.037879 0.1136404,-0.063132 0.050506,-0.037879 0.176775,-0.1388941 0.1262677,-0.1136412 0.2399081,-0.176775 0.063132,-0.037879 0.2020287,-0.1767743 0.025253,-0.037879 0.075759,-0.1136412 0.063132,-0.088387 0.1388949,-0.101014 0.025253,0 0.025253,-0.037879 0.025253,-0.037879 0.1894015,-0.277789 0.1388949,-0.1641478 0.1894015,-0.2651626 0.3535501,-0.5303235 0.3535501,-1.1237817 0,-0.088387 -0.025253,-0.3156691 Q 8.9072434,4.7056021 8.5410676,4.352052 8.2001448,4.01113 7.5814329,4.01113 7.2405101,4.01113 7.000602,4.074262 6.7480667,4.086888 6.5839189,4.112141 6.4323975,4.137394 6.2935026,4.200529 6.2429966,4.213155 6.1798622,4.238408 6.1167302,4.263661 6.0535946,4.276287 6.0409676,4.288913 6.0157156,4.314166 5.9904626,4.326792 5.9652096,4.326792 5.8136882,4.377298 5.5106463,4.5540736 q -0.075759,0.037879 -0.1641486,0.088387 -0.088387,0.050506 -0.2020279,0.101014 -0.012627,0.012626 -0.037879,0.012626 -0.025253,0 -0.037879,0.012626 Q 5.0055788,4.8192352 4.8288022,4.9581309 4.6520271,5.097025 4.5005066,5.2359191 4.3616116,5.3621868 4.2605977,5.5137082 3.9701822,5.9051384 3.9323021,5.955645 3.7681535,6.2208075 3.7807807,6.4985958 q 0.012626,0.025253 0.012626,0.063132 0,0.1010147 -0.1767743,0.2525353 -0.012626,0.012626 -0.037879,0.012626 -0.088387,0 -0.1388941,-0.050506 Q 3.4146066,6.6879964 3.351472,6.5491023 3.2883398,6.4102082 3.2757133,6.296567 L 3.2630873,6.233435 q 0,-0.063132 0.025253,-0.1515214 Q 3.3262193,5.9935256 3.3388463,5.955646 3.3767253,5.854632 3.5408743,5.6147231 3.90705,5.1980398 4.3489868,4.8318641 4.8540575,4.4278074 5.3465009,4.1626448 5.9020789,3.8596029 6.5207908,3.7838419 q 0.3282955,-0.050506 0.9848875,-0.050506 0.378803,0 0.6692185,0.1388941 0.555578,0.3030427 0.8333662,0.6692184 0.1515214,0.1894015 0.277789,0.5555781 0.088388,0.2651617 0.088388,0.5808309 0,0.2146552 -0.063132,0.5303243 Q 9.2608016,6.3975834 9.0840257,6.7511327 8.881997,7.1551894 8.3769263,7.5971262 7.9476168,7.9759292 7.5309337,8.1527042 7.455175,8.1905835 7.1395034,8.3421057 6.8364615,8.4809998 6.5460453,8.5693873 q 0.025253,0.050506 0.088387,0.1894015 0.075759,0.1388941 0.050506,0.2651618 0.012626,0.088388 0.1136404,0.2020287 -0.012627,0.025253 -0.012627,0.063132 0,0.037879 0.037879,0.1136404 0.037879,0.050506 0.1641478,0.3156692 0,0.012626 -0.012626,0.012626 l 0.050506,0.1515214 q 0.2904154,0.6439647 0.6944721,1.1995427 0.5050706,0.606084 1.3384369,0.744978 0.2399089,0.01263 0.4040566,-0.02525 0.1641478,-0.03788 0.3156692,-0.151521 0.075759,-0.05051 0.2146552,-0.189402 l 0.012626,0.03788 q 0,0.06313 -0.050505,0.11364 -0.2904155,0.35355 -0.6439648,0.467191 z M 4.0333161,9.9583324 Q 4.1722102,9.7689309 4.1722102,9.4785155 V 9.4406362 L 4.197463,9.3396214 Q 4.2227159,9.2764892 4.3111043,9.0618332 4.4121182,8.847178 4.4373719,8.6451492 v 0.012626 Q 4.4626248,8.6072699 4.5383859,8.4557469 4.6267734,8.3042264 4.6267734,8.1779587 4.7909212,7.9380499 4.8414278,7.698141 4.8161749,7.597127 4.8161749,7.5718733 q 0,-0.063132 0.037879,-0.1262677 0.050506,-0.075759 0.075759,-0.1136404 0.050506,-0.075759 0.1010139,-0.2020287 0.050506,-0.1262677 0.088388,-0.2146544 0.050506,-0.1515213 0.176775,-0.454564 L 5.5232743,5.842007 q 0.050506,-0.075759 0.063132,-0.1641486 0.025253,-0.101014 0.037879,-0.1515205 -0.075759,-0.1767751 -0.075759,-0.2904163 0,-0.088387 0.037879,-0.1767743 0.2904154,-0.1262676 0.7197258,-0.1010139 0.101014,0 0.1767743,0.088387 0.075759,0.088387 0.075759,0.1894015 0,0.037879 -0.012626,0.1262676 -0.012626,0.088388 -0.037879,0.138895 Q 6.4702804,5.5768435 6.4197714,5.690486 6.3692661,5.8041261 6.3313852,5.8672599 6.1546101,6.2839438 5.8515674,6.8647747 5.6242858,7.3950991 5.0939615,8.4810006 4.90456,8.8976837 4.8161733,9.1628463 4.7404146,9.289114 4.702532,9.5416493 L 4.614145,9.8951986 q -0.037879,0.1767754 -0.1010139,0.4293104 -0.063132,0.252535 -0.063132,0.454563 0,0.378803 0.2146551,0.681846 0.025253,0.05051 -0.037879,0.08839 -0.063132,0.0505 -0.1515213,0.0505 -0.2272817,0 -0.378803,-0.328295 -0.063132,-0.151522 -0.1136412,-0.328297 -0.050506,-0.164147 -0.050506,-0.303042 0,-0.03788 -0.025253,-0.189401 z"
         id="path201342"
         style="font-size:15.5204px;font-family:'Madelyn Fill-Trial';-inkscape-font-specification:MadelynFill-Regular;fill:#9bb49a;stroke-width:0.215254" /><path
         d="m 14.449967,7.8622896 q -0.151521,0.239908 -0.492444,0.4671897 -0.06313,0.050506 -0.113641,0.075759 -0.05051,0.025253 -0.07576,0.037879 Q 13.654481,8.5567586 13.616601,8.569385 13.50296,8.6830262 13.477706,8.6956527 L 13.288307,8.8598004 12.985265,9.087082 q -0.06313,0.075759 -0.176775,0.1262676 -0.101014,0.050506 -0.164148,0.1010148 -0.05051,0.025253 -0.101014,0.037879 -0.03788,0 -0.07576,0.025253 -0.07576,0.037879 -0.126267,0.037879 -0.01263,0 -0.05051,0.012626 -0.02525,0.012626 -0.06313,0.012626 -0.03788,0 -0.113642,0.012626 -0.06313,0.012626 -0.101013,0 -0.02525,-0.012626 -0.07576,-0.012626 -0.03788,-0.012626 -0.05051,-0.025253 -0.02525,-0.012626 -0.05051,-0.037879 -0.02525,-0.025253 -0.0505,-0.037879 -0.03788,-0.050506 -0.113642,-0.1136404 -0.07576,-0.075759 -0.101014,-0.1515214 -0.05051,-0.050506 -0.07576,-0.088387 -0.01263,-0.050506 -0.02525,-0.075759 -0.01263,0 -0.03788,-0.063132 -0.03788,0.025253 -0.08839,0.1010139 -0.03788,0.075759 -0.08839,0.075759 -0.01263,0.012626 -0.02525,0.037879 -0.01263,0.025253 -0.03788,0.037879 -0.39143,0.2904155 -0.555578,0.3661758 -0.164148,0.075759 -0.328296,0.075759 -0.164147,0 -0.277789,-0.050506 -0.063132,0 -0.1010135,-0.012626 Q 9.8790977,9.4280048 9.7275747,9.3522429 9.6013071,9.1880951 9.6013071,9.0113201 q 0,-0.063132 0.025253,-0.1641478 l 0.088387,-0.2272816 0.012626,-0.025253 q 0.012627,-0.063132 0.037879,-0.1136412 0.025253,-0.063132 0.037879,-0.1136404 l 0.088388,-0.1515214 q 0.037879,-0.050506 0.050506,-0.088387 0.025253,-0.037879 0.050506,-0.063132 0.1136409,-0.1767751 0.2904159,-0.3535493 -0.01263,0.012626 0.164148,-0.2020288 0.277789,-0.3030419 0.606084,-0.340922 0.27779,0.050506 0.429311,0.1262677 0.151521,0.075759 0.189401,0.2651617 l 0.01263,0.075759 q 0,0.1010148 -0.06313,0.2020287 -0.05051,0.101014 -0.07576,0.1388941 0.03788,0 0.138894,-0.050506 0.113641,-0.063132 0.202029,-0.050506 0.11364,0.037879 0.151521,0.176775 v 0.050506 q 0,0.1262677 -0.02525,0.1894015 -0.01263,0.012626 -0.01263,0.037879 0,0.012626 -0.01263,0.025253 -0.02525,0.1515214 -0.02525,0.2272816 0,0.1894015 0.06313,0.3156692 0.02525,0.088388 0.113641,0.1388949 0.03788,0.012626 0.08839,0 0.02525,-0.012626 0.05051,-0.012626 0.03788,0 0.08839,-0.025253 0.176775,-0.075759 0.580831,-0.3661766 0.378803,-0.2399089 0.530324,-0.3409228 l 0.25251,-0.1515188 0.315669,-0.2020279 q 0.101014,-0.088388 0.315669,-0.2146552 l 0.03788,0.025253 z m -4.444622,1.2626766 q 0.340923,0 0.492444,-0.063132 0.214655,-0.088387 0.404057,-0.2904163 0.01263,-0.012626 0.239908,-0.2777882 0.07576,-0.1010148 0.227282,-0.277789 0.01263,0 0.02525,-0.012626 0.02525,-0.025253 0.03788,-0.050506 h -0.01263 Q 11.23014,8.1400818 11.23014,7.799159 q 0,-0.1262677 0.02525,-0.2399089 -0.252536,0.037879 -0.530325,0.3409229 -0.277789,0.2904154 -0.42931,0.5555772 -0.227282,0.3914302 -0.290415,0.6692192 z"
         id="path201344"
         style="font-size:15.5204px;font-family:'Madelyn Fill-Trial';-inkscape-font-specification:MadelynFill-Regular;fill:#9bb49a;stroke-width:0.215254" /><path
         d="m 14.63912,13.05189 q -0.126267,0 -0.252535,-0.05051 -0.113641,-0.03788 -0.164148,-0.126267 -0.11364,-0.138894 -0.176774,-0.239908 -0.05051,-0.08839 -0.06313,-0.202029 -0.06313,-0.151521 -0.08839,-0.328296 -0.03788,-0.0505 -0.03788,-0.101014 0,-0.0505 0.05051,-0.08839 -0.05051,-0.03788 -0.06313,-0.151522 0,-0.11364 -0.02525,-0.151521 0,-0.01263 0.01263,-0.08839 0.01263,-0.07576 0.07576,-0.138895 l -0.01263,-0.01263 q -0.03788,-0.05051 -0.03788,-0.138895 0,-0.08839 0.01263,-0.164148 0.01263,-0.06313 0.02525,-0.11364 0,-0.02525 -0.01263,-0.07576 -0.01263,-0.03788 0.01263,-0.08839 0.02525,-0.05051 0.02525,-0.138894 0,-0.07576 0.01263,-0.101014 0,-0.03788 0.02525,-0.03788 0.02525,-0.113641 0.01263,-0.252535 0,-0.138895 0,-0.189401 0.08839,-0.4419373 0.101014,-0.5429521 0.05051,-0.075759 0.06313,-0.2272816 0.02525,-0.1641478 0.06313,-0.2272816 v -0.025253 q 0,-0.037879 0.02525,-0.075759 0.02525,-0.037879 0.03788,-0.063132 -0.01263,-0.037879 -0.01263,-0.1515213 0,-0.075759 0.03788,-0.1515214 0.02525,-0.012626 0.07576,-0.2146551 0.05051,-0.2146544 0.03788,-0.2525354 0.06313,-0.1388941 0.138894,-0.378803 0.08839,-0.239908 0.126268,-0.3788029 l 0.02525,-0.063132 -0.03788,0.012626 -0.05051,-0.012626 -0.08839,0.012626 h -0.214654 l -0.07576,0.012626 -0.03788,-0.012626 q -0.08839,-0.050506 -0.176775,-0.063132 -0.06313,0.025253 -0.06313,-0.1641478 l -0.02525,-0.012626 q 0,0.012626 -0.01263,0 0,-0.025253 -0.01263,-0.075759 -0.01263,-0.025253 0.02525,-0.088388 0.252535,0.012626 0.429309,0 h 0.06313 l 0.07576,-0.025253 q 0.02525,0 0.07576,0.012626 0.06313,0 0.07576,-0.012626 l 0.07576,-0.012626 h 0.126268 L 14.992658,6.47336 Q 15.245193,5.8420217 15.33358,5.6652466 15.37146,5.5768596 15.42197,5.437965 15.4851,5.2990701 15.535611,5.2106833 15.636625,4.9328943 15.914414,4.4404501 l 0.02525,-0.063132 0.378803,-0.6060846 0.214654,-0.277789 q 0.05051,-0.050506 0.138895,-0.050506 0.101014,0 0.303042,0.101014 0.02525,0.012626 0.06313,0.075759 0.05051,0.050506 0.06313,0.088388 v 0.012626 q 0,0.037879 -0.101014,0.1010148 -0.101014,0.050506 -0.164147,0.1262677 -0.126268,0.1767742 -0.189402,0.2525353 -0.126268,0.1262676 -0.189401,0.2651617 -0.06313,0.1136413 -0.151522,0.2272817 -0.08839,0.1136412 -0.126267,0.2020287 -0.06313,0.075759 -0.07576,0.1515206 -0.01263,0.063132 -0.03788,0.1136412 l -0.02525,0.037879 0.01263,0.025253 q 0,0.037879 -0.05051,0.075759 -0.0505,0.037879 -0.06313,0.037879 -0.01263,0.012626 -0.03788,0.101014 -0.06313,0.050506 -0.06313,0.1262677 0,0.037879 -0.01263,0.063132 -0.01263,0.025253 -0.01263,0.050506 -0.03788,0.075759 -0.08839,0.2020288 -0.03788,0.1262676 -0.06313,0.1767742 -0.02525,0.050506 -0.06313,0.088388 -0.02525,0.025253 -0.05051,0.050506 0,0.025253 0.02525,0.025253 -0.01263,0.037879 -0.01263,0.1262676 L 15.40935,6.6880054 q -0.03788,0.1136412 -0.07576,0.176775 l -0.03788,0.012627 0.06313,-0.012627 q 0.05051,-0.012626 0.202029,-0.012626 0.151521,-0.012626 0.189402,-0.025253 0.340922,-0.025253 0.416683,-0.050506 0.101014,-0.025253 0.239908,-0.025253 0.138895,0 0.176775,-0.012627 0.101014,-0.025253 0.252535,-0.025253 l 0.101014,0.037879 q 0.01263,0 0.01263,0.050506 0,0.063132 -0.164149,0.075759 l -0.176774,0.063132 q 0,0.063132 -0.01263,0.1136412 -0.01263,0.050506 -0.01263,0.063132 -0.05051,0.012626 -0.138894,0.037879 -0.08839,0.025253 -0.101015,-0.012626 -0.01263,0.012626 -0.03788,0.025253 -0.01263,0 -0.01263,-0.012627 -0.06313,0 -0.164148,0.025253 -0.101014,0.012626 -0.214655,0.025253 l -0.404056,0.037879 q -0.05051,0.012626 -0.151522,0.012626 -0.101014,-0.012626 -0.138894,0 l -0.02525,0.012626 q -0.01263,0.037879 -0.05051,0.050506 l -0.03788,0.1894015 -0.06313,0.2399089 0.151521,-0.012626 0.06313,0.063132 0.0505,-0.012627 q 0,0 0.01263,0.012627 0.02525,0 0.03788,-0.012627 0.01263,0 0.02525,-0.012626 0.01263,-0.012626 0.03788,0 l 0.06313,0.037879 h 0.07576 q 0.02525,0.050506 0.06313,0.101014 0.03788,0.050506 0.06313,0.101014 0.01263,0.012626 0.03788,0.037879 0.02525,0.012626 0.01263,0.025253 0.01263,0.063132 0.07576,0.075759 0.07576,0.012626 0.08839,0.037879 -0.01263,0.063132 0.08839,0.2399089 0.101014,0.1767742 0.151522,0.2272816 l -0.01263,0.025253 q 0,0.025253 0.05051,0.1262677 -0.01263,0.012626 -0.01263,0.050506 0,0.050506 0.01263,0.101014 0.02525,0.050506 0.03788,0.075759 0.02525,0.025253 0.03788,0.025253 -0.03788,0.050506 -0.05051,0.050506 l 0.01263,0.012626 q 0.01263,0.025253 0,0.063132 0,0.037879 0,0.063132 l -0.01263,0.050506 q 0.03788,0.025253 0.02525,0.1136412 0,0.088388 0.01263,0.1262677 v 0.025253 l 0.03788,0.8459919 q 0.01263,0.02525 0.01263,0.06313 0,0.03788 -0.02525,0.101014 -0.01263,0.06313 -0.01263,0.07576 l -0.06313,0.277789 -0.03788,-0.03788 0.02525,0.11364 -0.101014,0.315669 q 0,0.08839 -0.01263,0.101014 -0.03788,0.08839 -0.08839,0.214655 -0.03788,0.138895 -0.07576,0.239909 -0.07576,0.202028 -0.202028,0.366176 -0.02525,0.06313 -0.08839,0.151521 -0.06313,0.08839 -0.101014,0.138895 l -0.01263,0.02525 q -0.03788,0.05051 -0.113641,0.151521 -0.06313,0.101014 -0.151521,0.164148 -0.151522,0.126268 -0.277789,0.126268 -0.05051,0 -0.151521,0.02525 -0.101015,0.02525 -0.164148,0.02525 z m -0.404056,-1.022768 q -0.01263,0.01263 0,0.03788 0.02525,0.02525 0.02525,0.03788 l 0.02525,0.189402 q 0,0.164147 0.07576,0.277789 0.01263,0.02525 0.02525,0.07576 0.02525,0.06313 0.08839,0.05051 l 0.151522,-0.03788 q 0.176775,-0.03788 0.252535,-0.164149 0.227281,-0.202028 0.416683,-0.530324 0.101014,-0.202028 0.164148,-0.42931 0.07576,-0.214655 0.126267,-0.42931 0.02525,-0.08839 0.126268,-0.568205 0.02525,-0.290415 0.01263,-0.441937 0.03788,-0.1641473 0.03788,-0.3535488 0,-0.1388941 -0.01263,-0.2146552 L 15.712392,9.049201 Q 15.64926,8.7335319 15.573498,8.5567576 15.510366,8.3799826 15.37147,8.1653274 L 15.118935,7.8622855 15.01792,7.7991533 14.954788,8.0264349 q 0,0.101014 -0.07576,0.2525354 -0.02525,0.1515213 -0.07576,0.2525353 -0.02525,0.075759 -0.0505,0.1767742 -0.02525,0.1010148 -0.06313,0.1767751 -0.02525,0.063132 -0.08839,0.1010139 0.01263,0.037879 0.03788,0.088388 0.03788,0.037879 0,0.088387 l -0.252535,1.1742892 q 0,0.01263 -0.03788,0.05051 0.01263,0.01263 0.01263,0.0505 0,0.03788 -0.05051,0.08839 0.02525,0.01263 0.02525,0.02525 0.01263,0.02525 0.02525,0.03788 v 0.07576 l 0.01263,0.02525 q -0.02525,0.101014 -0.07576,0.290415 -0.03788,0.189402 -0.02525,0.277789 l 0.01263,0.08839 q 0,0.02525 -0.0505,0.176775 0.01263,0.01263 0.01263,0.176774 0,0.101014 -0.01263,0.126268 0.01263,0.01263 0.02525,0.08839 0.01263,0.07576 -0.02525,0.113641 z"
         id="path201346"
         style="font-size:15.5204px;font-family:'Madelyn Fill-Trial';-inkscape-font-specification:MadelynFill-Regular;fill:#9bb49a;stroke-width:0.215254" /><path
         d="m 21.709919,7.8622896 q -0.151522,0.239908 -0.492444,0.4671897 -0.06313,0.050506 -0.113641,0.075759 -0.05051,0.025253 -0.07576,0.037879 -0.113641,0.1136413 -0.151522,0.1262677 -0.11364,0.1136412 -0.138894,0.1262677 L 20.548259,8.8598004 20.245216,9.087082 q -0.06313,0.075759 -0.176774,0.1262676 -0.101014,0.050506 -0.164148,0.1010148 -0.05051,0.025253 -0.101015,0.037879 -0.03788,0 -0.07576,0.025253 -0.07576,0.037879 -0.126267,0.037879 -0.01263,0 -0.05051,0.012626 -0.02525,0.012626 -0.06313,0.012626 -0.03788,0 -0.113641,0.012626 -0.06313,0.012626 -0.101014,0 -0.02525,-0.012626 -0.07576,-0.012626 -0.03788,-0.012626 -0.05051,-0.025253 -0.02525,-0.012626 -0.05051,-0.037879 -0.02525,-0.025253 -0.05051,-0.037879 -0.03788,-0.050506 -0.113641,-0.1136404 -0.07576,-0.075759 -0.101014,-0.1515214 -0.05051,-0.050506 -0.07576,-0.088387 -0.01263,-0.050506 -0.02525,-0.075759 -0.01263,0 -0.03788,-0.063132 -0.03788,0.025253 -0.08839,0.1010139 -0.03788,0.075759 -0.08839,0.075759 -0.01263,0.012626 -0.02525,0.037879 -0.01263,0.025253 -0.03788,0.037879 -0.39143,0.2904155 -0.555578,0.3661758 -0.164148,0.075759 -0.328296,0.075759 -0.164148,0 -0.277789,-0.050506 -0.06313,0 -0.101014,-0.012626 -0.05051,-0.050506 -0.202028,-0.1262677 -0.126268,-0.1641478 -0.126268,-0.3409228 0,-0.063132 0.02525,-0.1641478 l 0.08839,-0.2272816 0.01263,-0.025253 q 0.01263,-0.063132 0.03788,-0.1136412 0.02525,-0.063132 0.03788,-0.1136404 l 0.08839,-0.1515214 q 0.03788,-0.050506 0.05051,-0.088387 0.02525,-0.037879 0.05051,-0.063132 0.11364,-0.1767751 0.290415,-0.3535493 -0.01263,0.012626 0.164148,-0.2020288 0.277789,-0.3030419 0.606084,-0.340922 0.277789,0.050506 0.429311,0.1262677 0.151521,0.075759 0.189401,0.2651617 l 0.01263,0.075759 q 0,0.1010148 -0.06313,0.2020287 -0.05051,0.101014 -0.07576,0.1388941 0.03788,0 0.138894,-0.050506 0.113641,-0.063132 0.202029,-0.050506 0.11364,0.037879 0.15152,0.176775 v 0.050506 q 0,0.1262677 -0.02525,0.1894015 -0.01263,0.012626 -0.01263,0.037879 0,0.012626 -0.01263,0.025253 -0.02525,0.1515214 -0.02525,0.2272816 0,0.1894015 0.06313,0.3156692 0.02525,0.088388 0.113641,0.1388949 0.03788,0.012626 0.08839,0 0.02525,-0.012626 0.05051,-0.012626 0.03788,0 0.08839,-0.025253 0.176774,-0.075759 0.580831,-0.3661766 0.378803,-0.2399089 0.530324,-0.3409228 L 20.990213,8.1400749 21.305882,7.938047 Q 21.406896,7.84966 21.621551,7.7233918 l 0.03788,0.025253 z m -4.444622,1.2626766 q 0.340923,0 0.492444,-0.063132 0.214655,-0.088387 0.404056,-0.2904163 0.01263,-0.012626 0.239909,-0.2777882 0.07576,-0.1010148 0.227282,-0.277789 0.01263,0 0.02525,-0.012626 0.02525,-0.025253 0.03788,-0.050506 h -0.01263 q -0.189401,-0.012626 -0.189401,-0.3535493 0,-0.1262677 0.02525,-0.2399089 -0.252536,0.037879 -0.530325,0.3409229 -0.277789,0.2904154 -0.42931,0.5555772 -0.227282,0.3914302 -0.290415,0.6692192 z"
         id="path201348"
         style="font-size:15.5204px;font-family:'Madelyn Fill-Trial';-inkscape-font-specification:MadelynFill-Regular;fill:#9bb49a;stroke-width:0.215254" /><path
         d="m 24.146631,8.4683742 q -0.01263,0.012626 -0.03788,0.050506 -0.01263,0.025253 -0.05051,0.050506 l -0.03788,0.050506 q -0.08839,0.037879 -0.03788,0.088387 -0.01263,0.012626 -0.06313,0.050506 -0.03788,0.025253 -0.05051,0.1010139 v 0.012626 q -0.01263,0.037879 -0.07576,0.1010139 l -0.164148,0.1388941 -0.239908,0.1894015 q -0.113642,0.063132 -0.265163,0.1641478 -0.06313,0.037879 -0.164148,0.1010148 -0.101014,0.075759 -0.176774,0.101014 -0.06313,0.025253 -0.138895,0.037879 -0.07576,0.012626 -0.11364,0.012626 -0.05051,0 -0.113641,0.037879 -0.03788,0.025253 -0.189402,0.050506 -0.126268,0.037879 -0.239909,0.037879 -0.176774,0 -0.429309,-0.075759 -0.176775,-0.063132 -0.290416,-0.1515214 -0.01263,-0.025253 -0.03788,-0.037879 -0.01263,0 -0.02525,-0.012626 -0.08839,-0.063132 -0.214655,-0.2525354 -0.02525,-0.025253 -0.05051,-0.1515213 -0.05051,-0.1136412 -0.05051,-0.2525353 0,-0.4166832 0.202028,-0.8081134 0.101014,-0.1515213 0.164148,-0.2272816 l 0.340923,-0.3914294 q 0.189401,-0.1894015 0.416683,-0.2020288 0.02525,0 0.126268,-0.025253 0.02525,-0.012626 0.07576,-0.012626 0.07576,0 0.151521,0.050506 0.07576,0.037879 0.101015,0.050506 0.138894,0.063132 0.303041,0.2020288 0.07576,0.050506 0.113642,0.1767742 0.03788,0.1262677 0.01263,0.2020287 -0.03788,0.101014 -0.101014,0.1641478 l -0.340923,0.3535493 q -0.02525,0.025253 -0.07576,0.050506 -0.03788,0.012626 -0.05051,0.037879 -0.01263,0.075759 -0.07576,0.101014 -0.06313,0.012626 -0.07576,0.025253 L 22.00008,8.784031 q -0.01263,0.012626 -0.01263,0.037879 0,0.012626 -0.01263,0.025253 -0.06313,0.037879 -0.138894,0.075759 -0.06313,0.025253 -0.126267,0.063132 -0.01263,0 -0.08839,0.075759 l -0.227281,0.1136404 q 0.03788,0.1136412 0.06313,0.1515214 0.03788,0.037879 0.11364,0.063132 0.101014,-0.012626 0.239909,-0.012626 0.151521,0 0.252535,-0.012626 0.08839,-0.012626 0.189402,-0.050506 0.11364,-0.037879 0.151521,-0.050506 L 22.69457,9.1375739 q 0.03788,-0.012626 0.08839,-0.025253 0.06313,-0.012626 0.101014,-0.037879 L 23.300657,8.834533 23.338537,8.80928 23.818354,8.5188638 q 0.126267,-0.063132 0.151521,-0.088387 l 0.42931,-0.3156692 0.02525,0.088387 q 0,0 0,0.012626 0.01263,0 0.01263,0 l -0.101014,0.088387 z m -2.550607,0.063132 0.340923,-0.277789 0.340922,-0.3030427 q 0.08839,-0.075759 0.176775,-0.2272817 0.01263,-0.012626 0.01263,-0.050506 0,-0.037879 -0.03788,-0.075759 -0.02525,-0.037879 -0.05051,-0.025253 -0.06313,0.025253 -0.164148,0.050506 -0.101014,0.025253 -0.164148,0.075759 -0.05051,0.037879 -0.151521,0.1136412 -0.101015,0.063132 -0.164148,0.1515213 -0.138895,0.1894015 -0.265162,0.4419368 -0.03788,0.088388 -0.08839,0.2651618 z"
         id="path201350"
         style="font-size:15.5204px;font-family:'Madelyn Fill-Trial';-inkscape-font-specification:MadelynFill-Regular;fill:#9bb49a;stroke-width:0.215254" /><path
         d="m 25.838424,10.425523 q -0.15152,0.02525 -0.202028,0.02525 -0.151521,0 -0.303043,-0.07576 -0.08839,-0.03788 -0.189401,-0.138894 L 24.95455,9.9962142 Q 24.91667,9.9330822 24.87879,9.8320664 24.84091,9.7436794 24.81566,9.6931723 24.77778,9.5795311 24.72727,9.3017421 24.70202,8.9734465 24.70202,8.8724325 q 0,-0.1136412 0.02525,-0.4671905 0.02525,-0.3914303 0.101014,-0.7954861 l 0.07576,-0.4166839 q 0,-0.075759 0.02525,-0.1767743 l 0.08839,-0.378803 q 0.02525,-0.075759 0.05051,-0.2146552 0.03788,-0.1515213 0.07576,-0.2651617 0.03788,-0.1388949 0.101014,-0.3156692 l 0.07576,-0.2525353 q 0.03788,-0.075759 0.06313,-0.1515213 0.03788,-0.088388 0.07576,-0.1515214 0.01263,-0.037879 0.02525,-0.101014 0.01263,-0.075759 0.05051,-0.1262676 0.05051,-0.1388949 0.151521,-0.4040567 0.11364,-0.277789 0.164148,-0.4166831 0.03788,-0.025253 0.07576,-0.101014 0.03788,-0.075759 0.06313,-0.1262676 l 0.08839,-0.2904163 0.101014,-0.2146544 q 0.01263,-0.012626 0.02525,-0.025253 0.01263,-0.012626 0.02525,-0.025253 l 0.492443,-0.9091273 q 0.151522,-0.277789 0.315669,-0.4419368 L 27.36625,1.7888177 q 0.101014,-0.101014 0.227281,-0.101014 0.06313,0 0.239909,0.050506 l 0.151522,0.075759 q 0.08839,0.037879 0.176774,0.1262677 l 0.07576,0.063132 q 0.02525,0.025253 0,0.050506 0.02525,0.1894015 0.03788,0.2272817 l -0.01263,0.2020279 q 0,0.050506 -0.03788,0.101014 -0.03788,0.037879 -0.01263,0.088388 l -0.126268,0.6313383 q 0.02525,0.050506 0.02525,0.063132 0,0.037879 -0.02525,0.075759 -0.02525,0.037879 -0.05051,0.050506 l 0.02525,0.037879 -0.138894,0.1767751 -0.05051,0.2146552 q -0.07576,0.1136404 -0.07576,0.1136404 -0.02525,0.037879 0.01263,0.1010147 v 0.037879 q 0,0.088387 -0.03788,0.1894015 -0.01263,-0.012626 -0.441937,0.7576059 l -0.42931,0.7197258 -0.681846,0.85862 q -0.01263,0 -0.02525,0 -0.01263,0 -0.01263,0 -0.03788,0.025253 -0.06313,0.075759 -0.01263,0.050506 -0.03788,0.075759 l -0.252535,0.239908 q -0.315669,0.3409229 -0.505071,0.5050707 -0.101014,0.1515213 -0.151521,0.5050706 -0.06313,0.4419368 -0.06313,0.6818457 0,0.5808309 0.164148,0.9470075 0.03788,0.1010139 0.113641,0.2020279 0.07576,0.1136407 0.138895,0.1388947 0.07576,0.03788 0.151521,0.03788 0.101014,0 0.214655,-0.07576 0.113641,-0.075758 0.151521,-0.1010131 0.05051,-0.012626 0.07576,0 0.02525,0.025253 0.02525,0.075758 0,0.101014 -0.08839,0.239908 -0.08839,0.138895 -0.214655,0.176775 z M 25.535382,6.6879997 q 0.101014,-0.101014 0.164148,-0.2146544 0.227282,-0.2651626 0.202028,-0.2399089 0.303043,-0.3661765 0.46719,-0.6187118 0.113642,-0.1136404 0.265163,-0.3409221 0.08839,-0.1262676 0.151521,-0.2399088 0.06313,-0.1262677 0.126267,-0.2272817 0.06313,-0.1388949 0.113641,-0.2399089 0.05051,-0.1010139 0.08839,-0.1894014 l 0.151521,-0.3030419 q 0.189402,-0.4545641 0.239908,-0.6187119 0.113642,-0.277789 0.176775,-0.6692184 0.05051,-0.1262677 0.07576,-0.3156692 0.03788,-0.2020287 0.06313,-0.3282964 l -0.05051,-0.012626 -0.08839,0.075759 q -0.02525,0.050506 -0.05051,0.075759 -0.252535,0.2525354 -0.315669,0.3661758 -0.227282,0.277789 -0.290415,0.4419368 -0.03788,0.1136412 -0.138895,0.2525353 -0.08839,0.1262677 -0.126267,0.1894015 -0.03788,0.075759 -0.113641,0.1894015 -0.06313,0.1136412 -0.08839,0.1894015 -0.07576,0.1515213 -0.176774,0.4293104 L 26.305603,4.49094 q -0.03788,0.075759 -0.07576,0.1641478 -0.02525,0.088388 -0.05051,0.1388941 -0.07576,0.1767751 -0.07576,0.2272824 -0.01263,0.050506 -0.02525,0.101014 0,0.037879 -0.01263,0.088388 -0.02525,0.063132 -0.07576,0.202028 -0.05051,0.1262676 -0.101014,0.2146552 -0.02525,0.063132 -0.08839,0.239908 -0.05051,0.1767751 -0.113641,0.3156692 -0.01263,0.025253 -0.03788,0.063132 -0.01263,0.025253 -0.03788,0.088387 z"
         id="path201352"
         style="font-size:15.5204px;font-family:'Madelyn Fill-Trial';-inkscape-font-specification:MadelynFill-Regular;fill:#9bb49a;stroke-width:0.215254" /><path
         d="m 31.98748,7.8622896 q -0.151522,0.239908 -0.492444,0.4671897 -0.06313,0.050506 -0.113641,0.075759 -0.05051,0.025253 -0.07576,0.037879 -0.113641,0.1136413 -0.151521,0.1262677 -0.113641,0.1136412 -0.138895,0.1262677 L 30.825818,8.8598004 30.522777,9.087082 q -0.06313,0.075759 -0.176775,0.1262676 -0.101014,0.050506 -0.164148,0.1010148 -0.05051,0.025253 -0.101014,0.037879 -0.03788,0 -0.07576,0.025253 -0.07576,0.037879 -0.126268,0.037879 -0.01263,0 -0.05051,0.012626 -0.02525,0.012626 -0.06313,0.012626 -0.03788,0 -0.113642,0.012626 -0.06313,0.012626 -0.101014,0 -0.02525,-0.012626 -0.07576,-0.012626 -0.03788,-0.012626 -0.05051,-0.025253 -0.02525,-0.012626 -0.05051,-0.037879 -0.02525,-0.025253 -0.05051,-0.037879 -0.03788,-0.050506 -0.113641,-0.1136404 -0.07576,-0.075759 -0.101014,-0.1515214 -0.05051,-0.050506 -0.07576,-0.088387 -0.01263,-0.050506 -0.02525,-0.075759 -0.01263,0 -0.03788,-0.063132 -0.03788,0.025253 -0.08839,0.1010139 -0.03788,0.075759 -0.08839,0.075759 -0.01263,0.012626 -0.02525,0.037879 -0.01263,0.025253 -0.03788,0.037879 -0.391429,0.2904155 -0.555578,0.3661758 -0.164148,0.075759 -0.328296,0.075759 -0.164147,0 -0.277789,-0.050506 -0.06313,0 -0.101013,-0.012626 -0.05051,-0.050506 -0.202028,-0.1262677 -0.126268,-0.1641478 -0.126268,-0.3409228 0,-0.063132 0.02525,-0.1641478 l 0.08839,-0.2272816 0.01263,-0.025253 q 0.01263,-0.063132 0.03788,-0.1136412 0.02525,-0.063132 0.03788,-0.1136404 l 0.08839,-0.1515214 q 0.03788,-0.050506 0.05051,-0.088387 0.02525,-0.037879 0.0505,-0.063132 0.113642,-0.1767751 0.290416,-0.3535493 -0.01263,0.012626 0.164148,-0.2020288 0.277789,-0.3030419 0.606085,-0.340922 0.277788,0.050506 0.42931,0.1262677 0.151521,0.075759 0.189401,0.2651617 l 0.01263,0.075759 q 0,0.1010148 -0.06313,0.2020287 -0.0505,0.101014 -0.07576,0.1388941 0.03788,0 0.138895,-0.050506 0.11364,-0.063132 0.202028,-0.050506 0.113641,0.037879 0.151521,0.176775 v 0.050506 q 0,0.1262677 -0.02525,0.1894015 -0.01263,0.012626 -0.01263,0.037879 0,0.012626 -0.01263,0.025253 -0.02525,0.1515214 -0.02525,0.2272816 0,0.1894015 0.06313,0.3156692 0.02525,0.088388 0.113641,0.1388949 0.03788,0.012626 0.08839,0 0.02525,-0.012626 0.05051,-0.012626 0.03788,0 0.08839,-0.025253 0.176775,-0.075759 0.580831,-0.3661766 0.378803,-0.2399089 0.530324,-0.3409228 L 31.267764,8.1400749 31.583433,7.938047 Q 31.684448,7.84966 31.899102,7.7233918 l 0.03788,0.025253 z m -4.444622,1.2626766 q 0.340923,0 0.492444,-0.063132 0.214655,-0.088387 0.404057,-0.2904163 0.01263,-0.012626 0.239908,-0.2777882 0.07576,-0.1010148 0.227282,-0.277789 0.01263,0 0.02525,-0.012626 0.02525,-0.025253 0.03788,-0.050506 h -0.01263 q -0.189402,-0.012626 -0.189402,-0.3535493 0,-0.1262677 0.02525,-0.2399089 -0.252535,0.037879 -0.530324,0.3409229 -0.277789,0.2904154 -0.42931,0.5555772 -0.227282,0.3914302 -0.290416,0.6692192 z"
         id="path201354"
         style="font-size:15.5204px;font-family:'Madelyn Fill-Trial';-inkscape-font-specification:MadelynFill-Regular;fill:#9bb49a;stroke-width:0.215254" /><path
         d="m 19.271971,22.970408 q -0.01263,0.02522 -0.03788,0.05052 -0.02525,0.03791 -0.06313,0.05052 l -0.189402,0.126273 h 0.02525 v 0.02522 q -0.151521,0.08839 -0.39143,0.06313 l -0.530325,-0.02522 q -0.101013,-0.03791 -0.378802,-0.151525 -0.265162,-0.101012 -0.290416,-0.08838 -0.151521,-0.05052 -0.328296,-0.164144 -0.176775,-0.10102 -0.265162,-0.151526 -0.202028,-0.101011 -0.845993,-0.492439 -0.138895,-0.07574 -0.265162,-0.138899 -0.517697,-0.315669 -0.757606,-0.404054 l -0.239908,-0.06313 q -0.265163,-0.06313 -0.479818,-0.06313 -0.378803,0 -0.631338,0.151525 -0.03788,0.02522 -0.101014,0.138891 -0.01263,0.02522 -0.06313,0.03791 -0.03788,0.01261 -0.06313,0.03791 l -0.03788,0.08839 q -0.05051,0.02522 -0.08839,0.05052 l -0.03788,0.164152 q -0.03788,0.05052 -0.08839,0.08838 -0.03788,0.05052 -0.06313,0.101011 -0.06313,0.101012 -0.07576,0.138899 -0.08839,0.113638 -0.126268,0.227276 -0.02525,0.113646 -0.01263,0.303043 -0.03788,0.03791 -0.08839,0.02522 -0.03788,-0.01261 -0.06313,-0.01261 -0.06313,0.02522 -0.101015,-0.05052 -0.02525,-0.02522 -0.06313,-0.06313 -0.03788,-0.03791 -0.06313,-0.08839 l -0.08839,-0.265164 -0.02525,-0.151525 q 0,-0.126265 0.03788,-0.315669 0.01263,-0.06313 0.126268,-0.31567 l 0.202028,-0.265155 q 0.05051,-0.05052 0.138895,-0.151525 0.101014,-0.08839 0.239908,-0.151517 l 0.164133,-0.08847 q 0.138894,-0.06313 0.239908,-0.214653 0.151521,-0.265162 0.303043,-0.568204 l 0.404056,-0.85862 0.151521,-0.328297 q -0.303042,0.138895 -0.568205,0.202029 l -0.176774,0.03788 q -0.290415,0.06313 -0.568204,0.06313 -0.05051,0 -0.07576,-0.02525 -0.02525,-0.03788 -0.05051,-0.05051 -0.02525,-0.05051 -0.05051,-0.113641 -0.02525,-0.06313 -0.06313,-0.08839 v -0.0505 q 0,-0.101015 0.05051,-0.138895 l 0.164148,0.03788 q 0.07576,0.01263 0.138894,0.01263 0.06313,-0.01263 0.113641,-0.01263 0.227282,-0.03788 0.227282,-0.03788 l 0.378803,-0.101014 q 0.214655,-0.06313 0.366176,-0.113642 0.164148,-0.06313 0.35355,-0.176774 0.227281,-0.50507 0.404056,-0.984887 0.189402,-0.505071 0.42931,-1.073276 0.252535,-0.580831 0.416684,-0.845993 0.454563,-0.732352 1.111155,-0.732352 0.378803,0 0.530324,0.176774 0.164148,0.176775 0.164148,0.441937 0,0.138895 -0.05051,0.378803 -0.0505,0.239909 -0.138894,0.416683 -0.631338,1.275304 -2.323325,2.335952 -0.07576,0.202028 -0.176774,0.441936 -0.101015,0.227283 -0.126268,0.290417 -0.151521,0.315669 -0.366176,0.732352 -0.202028,0.404057 -0.227282,0.429309 l -0.164148,0.328297 -0.151521,0.214652 q 0.202028,-0.02522 0.277789,-0.02522 0.101014,0 0.303042,0.02522 0.151521,0.02522 0.277789,0.06313 0.126267,0.03791 0.214655,0.06313 l 0.151521,0.06313 0.113641,0.07574 0.151521,0.05052 0.176775,0.113646 0.07576,0.05052 q 0.03788,0.06313 0.113641,0.113638 0.07576,0.05052 0.151521,0.03791 0.08839,0.01261 0.202028,0.08839 0.113641,0.07574 0.176774,0.101012 l 0.126268,0.113638 q 0.01263,0 0.02525,0 0.01263,0 0.01263,0 0.101014,0.126272 0.252536,0.164151 h 0.01263 q 0.05051,0 0.138894,0.08838 0.03788,0 0.08839,0.05052 0.07576,0 0.126268,0.02522 0.05051,0.02522 0.07576,0.06313 0.03788,0.03791 0.05051,0.05052 0.02525,0.02522 0.07576,0.02522 0.05051,0 0.08839,0.01261 0.126268,0.07574 0.277789,0.126264 0.164148,0.06313 0.239909,0.10102 0.113641,0.05052 0.252536,0.06313 0.151521,0.01261 0.227281,0.02522 0.176775,0.02522 0.454563,0 l 0.239909,-0.01261 v 0.02522 z m -3.573374,-5.088587 q 0.454563,-0.353549 0.732352,-0.694472 0.290415,-0.340922 0.530324,-0.782859 0.214655,-0.42931 0.214655,-0.795487 0,-0.101014 -0.06313,-0.189401 -0.05051,-0.08839 -0.164148,-0.08839 -0.05051,0 -0.126268,0.02525 -0.07576,0.02525 -0.126268,0.06313 l -0.138894,0.113641 q -0.01263,0.02525 -0.08839,0.08839 -0.06313,0.06313 -0.189402,0.328295 0,0 0,0.01263 -0.126268,0.227281 -0.189401,0.391429 -0.03788,0.03788 -0.07576,0.138894 -0.02525,0.08839 -0.07576,0.126268 0,0 0.01263,0.01263 0.02525,0 0.01263,0.01263 -0.01263,0.02525 -0.03788,0.07576 -0.01263,0.05051 -0.05051,0.06313 v 0.03788 q 0,0.03788 -0.02525,0.08839 -0.01263,0.03788 -0.02525,0.08839 0,0.01263 -0.01263,0.01263 -0.01263,0 -0.02525,0.01263 0.02525,-0.01263 0.01263,0.02525 0,0.02525 -0.02525,0.02525 0,0.06313 -0.39143,1.048021 z"
         id="path201357"
         style="font-size:15.5204px;font-family:'Madelyn Fill-Trial';-inkscape-font-specification:MadelynFill-Regular;fill:#9bb49a;stroke-width:0.215254" /><path
         d="m 22.238907,19.270765 q -0.151521,0.239909 -0.492444,0.467191 -0.06313,0.05051 -0.11364,0.07576 -0.05051,0.02525 -0.07576,0.03788 -0.11364,0.11364 -0.151521,0.126267 -0.113641,0.113641 -0.138894,0.126268 l -0.189402,0.164148 -0.303043,0.227281 q -0.06313,0.07576 -0.176774,0.126268 -0.101014,0.05051 -0.164148,0.101014 -0.0505,0.02525 -0.101014,0.03788 -0.03788,0 -0.07576,0.02525 -0.07576,0.03788 -0.126268,0.03788 -0.01263,0 -0.05051,0.01263 -0.02525,0.01263 -0.06313,0.01263 -0.03788,0 -0.11364,0.01263 -0.06313,0.01263 -0.101014,0 -0.02525,-0.01263 -0.07576,-0.01263 -0.03788,-0.01263 -0.0505,-0.02525 -0.02525,-0.01263 -0.05051,-0.03788 -0.02525,-0.02525 -0.05051,-0.03788 -0.03788,-0.05051 -0.11364,-0.11364 -0.07576,-0.07576 -0.101014,-0.151522 -0.05051,-0.05051 -0.07576,-0.08839 -0.01263,-0.05051 -0.02525,-0.07576 -0.01263,0 -0.03788,-0.06313 -0.03788,0.02525 -0.08839,0.101014 -0.03788,0.07576 -0.08839,0.07576 -0.01263,0.01263 -0.02525,0.03788 -0.01263,0.02525 -0.03788,0.03788 -0.39143,0.290416 -0.555578,0.366176 -0.164147,0.07576 -0.328295,0.07576 -0.164149,0 -0.277789,-0.05051 -0.06313,0 -0.101014,-0.01263 -0.05051,-0.05051 -0.202029,-0.126267 -0.126268,-0.164149 -0.126268,-0.340923 0,-0.06313 0.02525,-0.164148 l 0.08839,-0.227283 0.01263,-0.02525 q 0.01263,-0.06313 0.03788,-0.113642 0.02525,-0.06313 0.03788,-0.113641 l 0.08839,-0.15152 q 0.03788,-0.05051 0.05051,-0.08839 0.02525,-0.03788 0.05051,-0.06313 0.11364,-0.176775 0.290416,-0.353549 -0.01263,0.01263 0.164147,-0.202029 0.277789,-0.303042 0.606085,-0.340923 0.277789,0.05051 0.42931,0.126268 0.151522,0.07576 0.189402,0.265162 l 0.01263,0.07576 q 0,0.101014 -0.06313,0.202029 -0.05051,0.101014 -0.07576,0.138894 0.03788,0 0.138895,-0.05051 0.113641,-0.06313 0.202028,-0.05051 0.113641,0.03788 0.151521,0.176774 v 0.05051 q 0,0.126268 -0.02525,0.189402 -0.01263,0.01263 -0.01263,0.03788 0,0.01263 -0.01263,0.02525 -0.02525,0.151521 -0.02525,0.227282 0,0.189401 0.06313,0.315669 0.02525,0.08839 0.113642,0.138895 0.03788,0.01263 0.08839,0 0.02525,-0.01263 0.05051,-0.01263 0.03788,0 0.08839,-0.02525 0.176774,-0.07576 0.58083,-0.366175 0.378803,-0.239909 0.530325,-0.340923 l 0.252535,-0.151522 0.315669,-0.202028 q 0.101014,-0.08839 0.315669,-0.214655 l 0.03788,0.02525 z m -4.444621,1.262677 q 0.340922,0 0.492444,-0.06313 0.214654,-0.08839 0.404056,-0.290416 0.01263,-0.01263 0.239908,-0.277789 0.07576,-0.101014 0.227282,-0.277788 0.01263,0 0.02525,-0.01263 0.02525,-0.02525 0.03788,-0.05051 h -0.01263 q -0.189402,-0.01263 -0.189402,-0.35355 0,-0.126268 0.02525,-0.239908 -0.252535,0.03788 -0.530324,0.340922 -0.277789,0.290416 -0.42931,0.555578 -0.227282,0.39143 -0.290416,0.669218 z"
         id="path201359"
         style="font-size:15.5204px;font-family:'Madelyn Fill-Trial';-inkscape-font-specification:MadelynFill-Regular;fill:#9bb49a;stroke-width:0.215254" /><path
         d="m 21.92299,21.530953 q -0.06313,-0.02522 -0.164148,-0.13889 -0.08839,-0.113638 -0.07576,-0.176779 0.11364,-0.643961 0.11364,-0.643961 0.164149,-0.568205 0.189401,-0.669219 0.01263,-0.02525 0.07576,-0.441937 0,-0.03788 -0.01263,-0.03788 -0.02525,-0.05051 -0.02525,-0.07576 l 0.01263,-0.113641 q 0.01263,-0.101014 0.07576,-0.101014 0.239909,0 0.404057,0.252535 l 0.01263,0.02525 q -0.02525,0.11364 -0.05051,0.290415 -0.02525,0.214655 -0.03788,0.239909 l -0.08839,0.252535 -0.01263,0.05051 q 0.01263,-0.01263 0.01263,-0.01263 0.202028,-0.303043 0.416684,-0.517698 0.126267,-0.151521 0.265162,-0.252535 0.06313,-0.03788 0.202028,-0.05051 0.08839,0 0.164148,0.02525 0.02525,0 0.08839,0.03788 0.07576,0.03788 0.176775,0.08839 0,0.02525 0,0.08839 0.01263,0.05051 0.05051,0.06313 0.01263,0 0,0.02525 0,0.02525 0,0.05051 0.06313,0.164148 0.07576,0.340923 0,0.101014 -0.02525,0.303042 0,0.01263 0,0.05051 0.01263,0.02525 0,0.05051 0.01263,0.08839 0.01263,0.277789 l 0.03788,0.126268 q 0,0.02525 0.05051,0.07576 h 0.03788 l 0.265162,-0.138895 q 0.126268,-0.03788 0.214655,-0.113641 l 1.17429,-1.123782 q 0.06313,0 0.08839,0.03788 0.02525,0.03788 -0.02525,0.08839 l -0.113641,0.176775 q -0.01263,0.03788 -0.02525,0.08839 -0.01263,0.03788 -0.02525,0.07576 -0.05051,0.08839 -0.126267,0.151521 l -0.214655,0.252536 q 0,0.01263 -0.01263,0.05051 -0.01263,0.02525 -0.06313,0.05051 l 0.01263,0.03788 q -0.01263,0.01263 -0.03788,0.01263 -0.01263,0 -0.01263,0.01263 -0.03788,0.07576 -0.126267,0.151522 -0.07576,0.07576 -0.113641,0.11364 -0.101014,0.113641 -0.303042,0.252533 -0.138895,0.10102 -0.328297,0.126273 -0.189401,0.02522 -0.252535,0.03791 h -0.01263 q -0.02525,-0.01261 -0.08839,-0.03791 -0.05051,-0.01261 -0.101014,-0.07574 -0.202028,-0.151517 -0.265162,-0.366172 -0.113641,-0.404057 -0.08839,-0.719726 l 0.01263,-0.227282 q -0.05051,-0.06313 -0.06313,-0.07576 -0.02525,0.101014 -0.06313,0.138894 -0.03788,0.03788 -0.113641,0.05051 -0.03788,0.138894 -0.176775,0.202027 v 0.01263 q 0,0.05051 -0.05051,0.08839 -0.03788,0.03788 -0.06313,0.07576 -0.01263,0.02525 -0.0505,0.06313 -0.02525,0.03788 -0.01263,0.03788 l -0.06313,0.08839 q -0.05051,0.07576 -0.151521,0.265162 -0.08839,0.189402 -0.164148,0.340917 -0.07576,0.10102 -0.164148,0.10102 l -0.03788,0.08839 q 0,0 -0.03788,0.03791 -0.03788,0.07574 -0.08839,0.08838 -0.03788,0.02522 -0.113641,0 z"
         id="path201361"
         style="font-size:15.5204px;font-family:'Madelyn Fill-Trial';-inkscape-font-specification:MadelynFill-Regular;fill:#9bb49a;stroke-width:0.215254" /><path
         d="m 27.566955,21.000632 q -0.239908,0.151522 -0.50507,0.151522 -0.164148,0 -0.303042,-0.07576 -0.138895,-0.07576 -0.189402,-0.202029 -0.126267,-0.227281 -0.08839,-0.479817 0.05051,-0.492444 0.113641,-0.707098 0.101014,-0.378803 0.126268,-0.555578 v -0.03788 q 0,-0.07576 -0.06313,-0.07576 -0.05051,0 -0.176775,0.06313 -0.151521,0.06313 -0.265161,0.138895 -0.101015,0.07576 -0.138895,0.101014 -0.138894,0.08839 -0.214655,0.164148 -0.06313,0.07576 -0.101014,0.113641 -0.05051,0.126268 -0.08839,0.277789 l -0.08839,0.429309 q 0,0.03788 -0.05051,0.265163 -0.01263,0.02525 -0.03788,0.101014 -0.01263,0.07576 -0.03788,0.07576 -0.07576,0 -0.176775,-0.02525 -0.08839,-0.02525 -0.151521,-0.06313 -0.01263,-0.05051 0.02525,-0.277789 0.03788,-0.239909 0.05051,-0.303042 0.08839,-0.454564 0.214655,-1.060649 0.126267,-0.618711 0.189401,-0.871246 l 0.03788,-0.138895 -0.03788,0.02525 q -0.07576,0.03788 -0.239908,0.151521 -0.164148,0.101014 -0.214655,0.101014 -0.02525,0 -0.06313,-0.01263 -0.02525,-0.02525 -0.03788,-0.05051 -0.01263,-0.01263 -0.01263,-0.113641 0,-0.252535 0.05051,-0.290416 0.391429,-0.239908 0.757606,-0.555577 0.03788,-0.06313 0.03788,-0.08839 0.01263,-0.02525 0.01263,-0.05051 v 0.01263 q 0.202028,-0.580832 0.315669,-0.959635 0.113641,-0.340922 0.416684,-1.048021 0.03788,-0.113641 0.138894,-0.340923 0.03788,-0.126268 0.126267,-0.11364 -0.05051,-0.01263 -0.06313,-0.03788 0,-0.02525 0.05051,-0.05051 0.101014,-0.227281 0.214655,-0.416683 0.07576,-0.164147 0.151521,-0.277789 0.07576,-0.126267 0.126267,-0.227281 0.101015,-0.189402 0.164149,-0.252536 0.03788,-0.113641 0.03788,-0.164148 0.01263,-0.01263 0.03788,-0.01263 0.03788,-0.01263 0.07576,-0.03788 0.07576,-0.08839 0.138895,-0.189401 0.07576,-0.101014 0.164148,-0.214656 -0.05051,0 -0.07576,-0.01263 0.101014,-0.03788 0.138894,-0.07576 h -0.05051 l 0.176775,-0.227281 q 0.138894,-0.138894 0.202028,-0.164148 0.303042,-0.340923 0.681845,-0.467191 0.113641,-0.03788 0.202028,-0.03788 0.164149,0 0.340923,0.101014 0.101014,0.03788 0.151521,0.164148 0.06313,0.126267 0.03788,0.227281 -0.01263,0.03788 -0.01263,0.06313 0.01263,0.01263 0,0.03788 l 0.02525,0.05051 -0.126268,0.378803 q -0.01263,0.01263 -0.02525,0.03788 -0.01263,0.01263 -0.01263,0.03788 v 0.06313 q -0.138894,0.138895 -0.176774,0.378803 -0.05051,0.227282 -0.176775,0.290416 -0.05051,0.05051 -0.126268,0.189401 -0.06313,0.138895 -0.126267,0.202028 -0.101014,0.101015 -0.202028,0.265163 -0.101014,0.164148 -0.164148,0.265162 -0.08839,0.101014 -0.164149,0.239909 l -0.176774,0.239908 q -0.151521,0.252535 -0.39143,0.555578 -0.08839,0.113641 -0.568205,0.719726 -0.03788,0.06313 -0.126267,0.151521 -0.08839,0.08839 -0.138894,0.15152 -0.176776,0.176775 -0.214656,0.202029 l -0.227281,0.252535 q -0.315669,0.35355 -0.328296,0.366176 -0.06313,0.05051 -0.113641,0.151522 -0.02525,0.138894 -0.06313,0.227281 -0.01263,0.06313 -0.06313,0.214655 -0.05051,0.138895 -0.08839,0.290416 -0.06313,0.328296 -0.164148,0.681846 0.05051,-0.05051 0.252535,-0.202028 0.290416,-0.189402 0.429311,-0.239909 0.138894,-0.05051 0.290415,-0.05051 0.138894,0 0.214655,0.02525 0.07576,0.01263 0.138895,0.08839 0.08839,0.08839 0.07576,0.214656 0.01263,0.02525 0.01263,0.101014 0,0.06313 -0.02525,0.164147 -0.01263,0.101014 -0.02525,0.176775 -0.01263,0.101014 -0.03788,0.189402 -0.02525,0.08839 -0.03788,0.164148 -0.06313,0.138894 -0.07576,0.277789 -0.07576,0.378803 -0.07576,0.568204 0,0.189402 0.08839,0.239908 0.214655,0.02525 0.479816,-0.126267 0.101014,-0.06313 0.31567,-0.227282 0.214655,-0.176774 0.353549,-0.303042 0.265162,-0.252535 0.46719,-0.467191 0.303043,-0.303042 0.303043,-0.303042 l 0.138894,-0.138894 0.05051,-0.01263 -0.07576,0.227283 q 0,0.01263 0.02525,0.01263 -0.02525,0.03788 -0.07576,0.126268 -0.05051,0.07576 -0.06313,0.151521 l 0.01263,0.01263 q -0.06313,0.101014 -0.303043,0.378803 -0.239908,0.239908 -0.239908,0.239908 -0.03788,0.02525 -0.202029,0.189402 -0.164148,0.151521 -0.429309,0.340923 z m -1.085901,-4.217339 q -0.01263,0.01263 0.01263,0.01263 0,0 0.416684,-0.492444 0.05051,-0.05051 0.277788,-0.303042 0.151522,-0.164148 0.404057,-0.517698 0.07576,-0.11364 0.252535,-0.340922 0.391431,-0.530324 0.454564,-0.618712 0.03788,-0.06313 0.126268,-0.164147 0.08839,-0.101014 0.11364,-0.189402 0,-0.06313 0.06313,-0.126267 0.08839,-0.05051 0.08839,-0.164148 h 0.02525 q 0.03788,0 0.03788,-0.03788 0.01263,-0.03788 0.01263,-0.05051 0.01263,-0.02525 0.02525,-0.05051 0.01263,-0.03788 0.02525,-0.07576 0.101014,-0.101015 0.113641,-0.138895 0.06313,-0.02525 0.06313,-0.01263 -0.02525,-0.05051 -0.01263,-0.06313 0.02525,-0.03788 0.07576,-0.101014 0.05051,-0.06313 0.05051,-0.101015 0.126268,-0.164148 0.227282,-0.42931 0.113641,-0.277789 0.113641,-0.46719 0,-0.07576 -0.02525,-0.151521 -0.02525,0 -0.02525,-0.01263 -0.126268,0.03788 -0.290415,0.164148 -0.164148,0.113641 -0.31567,0.252535 l -0.227281,0.202028 -0.214655,0.277789 q -0.101014,0.101014 -0.101014,0.101014 -0.06313,0.06313 -0.164148,0.202029 -0.202029,0.252535 -0.277789,0.391429 -0.113641,0.164149 -0.227282,0.404057 -0.07576,0.07576 -0.08839,0.113641 -0.126268,0.227282 -0.176775,0.340923 -0.05051,0.05051 -0.113641,0.227282 -0.06313,0.11364 -0.113641,0.277789 0,0.02525 -0.03788,0.06313 -0.02525,0.02525 -0.02525,0.03788 v 0.01263 q 0,0.0505 -0.07576,0.138895 -0.06313,0.07576 -0.03788,0.126267 -0.01263,0 -0.02525,0.01263 0,0 0,0.01263 -0.01263,0.05051 -0.06313,0.151521 -0.06313,0.03788 -0.07576,0.151522 -0.01263,0.101014 -0.02525,0.151521 -0.0505,0.08839 -0.101015,0.340923 -0.08839,0.202028 -0.08839,0.303042 -0.05051,0.126268 -0.05051,0.138895 z"
         id="path201363"
         style="font-size:15.5204px;font-family:'Madelyn Fill-Trial';-inkscape-font-specification:MadelynFill-Regular;fill:#9bb49a;stroke-width:0.215254" /><path
         d="m 29.789023,18.184864 q -0.02525,-0.01263 -0.06313,-0.02525 -0.03788,-0.02525 -0.07576,-0.06313 -0.113642,-0.126268 -0.07576,-0.31567 0.03788,-0.126267 0.126268,-0.202028 0.08839,-0.08839 0.239908,-0.164147 0.01263,-0.01263 0.06313,-0.01263 h 0.05051 q 0.151521,0 0.189402,0.113641 0.01263,0.02525 0.03788,0.113641 0.02525,0.08839 0.02525,0.164148 0,0.138895 -0.06313,0.214655 -0.06313,0.07576 -0.138895,0.138895 -0.07576,0.05051 -0.101014,0.06313 -0.02525,0.01263 -0.08839,0.01263 -0.0505,0 -0.126267,-0.03788 z m -0.782859,2.790515 q -0.02525,-0.252536 0.08839,-0.681845 0.02525,-0.164148 0.126268,-0.492444 0.01263,-0.06313 0.176775,-0.681845 V 19.01823 q -0.02525,-0.08839 0.05051,-0.08839 0.01263,0 0.03788,-0.01263 0.03788,-0.01263 0.07576,0.03788 0.02525,0.02525 0.08839,0.07576 0.06313,0.05051 0.07576,0.08839 0.113641,0.08839 0.138895,0.138894 0.03788,0.07576 0.01263,0.189402 0,0.07576 -0.05051,0.202028 -0.02525,0.08839 -0.138894,0.46719 -0.05051,0.101014 -0.06313,0.151522 -0.02525,0.05051 -0.02525,0.06313 0.01263,0.02525 0.01263,0.06313 0,0.06313 -0.02525,0.151521 -0.02525,0.07576 -0.03788,0.138894 0,0.06313 -0.02525,0.176776 -0.01263,0.101013 -0.02525,0.176774 0.214655,-0.06313 0.353549,-0.176774 l 0.202029,-0.176776 q 0.277788,-0.227281 0.416683,-0.366175 l 0.328295,-0.315669 q 0,0 0.239909,-0.239909 0.454564,-0.416683 0.479817,-0.441937 0.02525,0.02525 0.02525,0.06313 0,0.06313 -0.05051,0.151521 l -0.01263,0.01263 q -0.02525,0.03788 -0.176775,0.265162 -0.138894,0.214655 -0.189402,0.277789 -0.02525,0.03788 -0.08839,0.164148 -0.05051,0.113641 -0.164148,0.265162 l -0.138894,0.202028 -0.06313,0.08839 -0.06313,0.06313 q -0.126268,0.07576 -0.265163,0.265162 -0.06313,0.07576 -0.189401,0.164151 -0.03788,0.03791 -0.113641,0.05052 -0.06313,0.02522 -0.08839,0.03791 l -0.252536,0.126265 -0.06313,0.01261 q -0.06313,0 -0.189401,-0.05052 -0.08839,-0.01261 -0.151522,-0.08838 -0.06313,-0.07574 -0.11364,-0.113638 -0.01263,-0.01261 -0.02525,-0.03791 -0.01263,-0.02522 -0.01263,-0.03791 -0.01263,-0.05051 -0.06313,-0.101012 -0.01263,-0.03788 -0.03788,-0.06313 -0.01263,-0.02525 -0.02525,-0.06313 z"
         id="path201365"
         style="font-size:15.5204px;font-family:'Madelyn Fill-Trial';-inkscape-font-specification:MadelynFill-Regular;fill:#9bb49a;stroke-width:0.215254" /></g><path
       style="fill:#9bb49a;fill-opacity:1;stroke:#9bb49a;stroke-width:0.215254;stroke-linecap:butt;stroke-linejoin:round;stroke-dasharray:none;stroke-opacity:1;stop-color:#000000"
       d="M 37.528563,1.7713752 V 23.208114"
       id="path207879" /></g></svg>
