<?xml version="1.0" encoding="UTF-8" standalone="no"?>
<!-- Created with Inkscape (http://www.inkscape.org/) -->

<svg
   version="1.1"
   id="svg132"
   width="137.10449"
   height="31.67514"
   viewBox="0 0 137.10449 31.67514"
   xml:space="preserve"
   xmlns="http://www.w3.org/2000/svg"
   xmlns:svg="http://www.w3.org/2000/svg"><defs
     id="defs136" /><g
     id="g23852"
     transform="matrix(0.31999998,0,0,0.31999998,-38.501953,-452.13344)"><g
       id="g67712"><g
         id="g67692"><g
           id="g67654"><path
             d="m 217.63136,1511.9019 q -1.08012,0 -2.16024,-0.395 -0.9721,-0.2962 -1.40415,-0.9874 -0.97211,-1.0861 -1.51217,-1.8761 -0.43205,-0.6912 -0.54006,-1.5799 -0.54005,-1.1848 -0.75608,-2.5672 -0.32403,-0.395 -0.32403,-0.79 0,-0.395 0.43204,-0.6912 -0.43204,-0.2962 -0.54005,-1.1848 0,-0.8887 -0.21603,-1.185 0,-0.099 0.10802,-0.6912 0.10801,-0.5924 0.64806,-1.0861 l -0.10801,-0.099 q -0.32403,-0.395 -0.32403,-1.0861 0,-0.6912 0.10801,-1.2837 0.10801,-0.4937 0.21602,-0.8886 0,-0.1975 -0.10801,-0.5925 -0.10801,-0.2962 0.10801,-0.6912 0.21603,-0.3949 0.21603,-1.0861 0,-0.5925 0.10801,-0.79 0,-0.2962 0.21602,-0.2962 0.21602,-0.8887 0.10801,-1.9749 0,-1.0861 0,-1.481 0.75608,-3.456 0.86409,-4.246 0.43205,-0.5924 0.54006,-1.7773 0.21603,-1.2836 0.54006,-1.7774 v -0.1974 q 0,-0.2963 0.21603,-0.5925 0.21602,-0.2962 0.32403,-0.4937 -0.10801,-0.2962 -0.10801,-1.1849 0,-0.5925 0.32404,-1.1849 0.21602,-0.099 0.64807,-1.6786 0.43205,-1.6787 0.32404,-1.9749 0.54005,-1.0861 1.18812,-2.9622 0.75608,-1.8761 1.08012,-2.9623 l 0.21602,-0.4937 -0.32403,0.099 -0.43205,-0.099 -0.75608,0.099 h -1.8362 l -0.64807,0.099 -0.32404,-0.099 q -0.75608,-0.395 -1.51216,-0.4937 -0.54006,0.1974 -0.54006,-1.2837 l -0.21602,-0.099 q 0,0.099 -0.10802,0 0,-0.1975 -0.10801,-0.5925 -0.10801,-0.1975 0.21603,-0.6911 2.16023,0.099 3.6724,0 h 0.54006 l 0.64807,-0.1976 q 0.21602,0 0.64807,0.099 0.54005,0 0.64807,-0.099 l 0.64807,-0.099 h 1.08012 l 1.29614,-3.2585 q 2.16023,-4.9371 2.91631,-6.3194 0.32404,-0.6912 0.75609,-1.7774 0.54006,-1.0862 0.97211,-1.7774 0.86409,-2.1722 3.24035,-6.0232 l 0.21602,-0.4937 3.24036,-4.7396 1.83619,-2.1723 q 0.43205,-0.395 1.18814,-0.395 0.86409,0 2.59228,0.7899 0.21602,0.099 0.54006,0.5925 0.43204,0.395 0.54005,0.6912 v 0.099 q 0,0.2962 -0.86409,0.79 -0.86409,0.395 -1.40415,0.9874 -1.08012,1.3824 -1.62018,1.9748 -1.08012,0.9874 -1.62018,2.0736 -0.54005,0.8887 -1.29613,1.7773 -0.75609,0.8887 -1.08012,1.5799 -0.54006,0.5925 -0.64807,1.1849 -0.10802,0.4937 -0.32404,0.8887 l -0.21602,0.2962 0.10801,0.1975 q 0,0.2962 -0.43205,0.5924 -0.43205,0.2963 -0.54006,0.2963 -0.10801,0.099 -0.32404,0.7899 -0.54005,0.395 -0.54005,0.9874 0,0.2963 -0.10802,0.4937 -0.10801,0.1975 -0.10801,0.395 -0.32403,0.5924 -0.75608,1.5799 -0.32403,0.9874 -0.54006,1.3823 -0.21602,0.395 -0.54005,0.6912 -0.21603,0.1975 -0.43205,0.395 0,0.1975 0.21602,0.1975 -0.10801,0.2962 -0.10801,0.9874 l -1.29614,2.666 q -0.32404,0.8887 -0.64808,1.3824 l -0.32403,0.099 0.54006,-0.099 q 0.43205,-0.099 1.72819,-0.099 1.29614,-0.099 1.62018,-0.1975 2.91631,-0.1975 3.56439,-0.395 0.86409,-0.1974 2.05222,-0.1974 1.18813,0 1.51216,-0.099 0.8641,-0.1974 2.16024,-0.1974 l 0.86409,0.2962 q 0.10802,0 0.10802,0.3949 0,0.4937 -1.40416,0.5925 l -1.51216,0.4937 q 0,0.4937 -0.10802,0.8887 -0.10801,0.3949 -0.10801,0.4936 -0.43205,0.099 -1.18813,0.2963 -0.75608,0.1975 -0.86409,-0.099 -0.10801,0.099 -0.32403,0.1974 -0.10802,0 -0.10802,-0.099 -0.54005,0 -1.40415,0.1975 -0.8641,0.099 -1.8362,0.1974 l -3.45638,0.2963 q -0.43205,0.099 -1.29614,0.099 -0.8641,-0.099 -1.18813,0 l -0.21602,0.099 q -0.10802,0.2962 -0.43205,0.3949 l -0.32404,1.4812 -0.54005,1.876 1.29614,-0.099 0.54005,0.4937 0.43205,-0.099 q 0,0 0.10801,0.099 0.21603,0 0.32404,-0.099 0.10801,0 0.21602,-0.099 0.10801,-0.099 0.32404,0 l 0.54006,0.2962 h 0.64807 q 0.21602,0.3949 0.54006,0.7899 0.32403,0.3949 0.54006,0.7899 0.10801,0.099 0.32403,0.2962 0.21603,0.099 0.10801,0.1976 0.10802,0.4936 0.64807,0.5924 0.64807,0.099 0.75608,0.2962 -0.10801,0.4937 0.75609,1.8761 0.86409,1.3824 1.29614,1.7774 l -0.10801,0.1974 q 0,0.1976 0.43205,0.9874 -0.10801,0.099 -0.10801,0.395 0,0.395 0.10801,0.79 0.21602,0.3949 0.32403,0.5924 0.21603,0.1975 0.32404,0.1975 -0.32404,0.3949 -0.43205,0.3949 l 0.10801,0.099 q 0.10802,0.1975 0,0.4937 0,0.2962 0,0.4937 l -0.10801,0.395 q 0.32404,0.1975 0.21603,0.8887 0,0.6912 0.10801,0.9874 v 0.1975 l 0.32403,6.6157 q 0.10801,0.1974 0.10801,0.4937 0,0.2962 -0.21602,0.7899 -0.10801,0.4937 -0.10801,0.5925 l -0.54006,2.1723 -0.32404,-0.2963 0.21603,0.8887 -0.8641,2.4685 q 0,0.6912 -0.10801,0.79 -0.32404,0.6912 -0.75608,1.6786 -0.32404,1.0862 -0.64808,1.8761 -0.64807,1.5799 -1.72818,2.8635 -0.21602,0.4937 -0.75608,1.1849 -0.54006,0.6912 -0.8641,1.0862 l -0.10801,0.1975 q -0.32404,0.3949 -0.97211,1.1849 -0.54006,0.7899 -1.29614,1.2836 -1.29614,0.9874 -2.37626,0.9874 -0.43204,0 -1.29614,0.1975 -0.8641,0.1975 -1.40415,0.1975 z m -3.45638,-7.9981 q -0.10801,0.099 0,0.2963 0.21602,0.1974 0.21602,0.2962 l 0.21603,1.4811 q 0,1.2836 0.64807,2.1723 0.10801,0.1975 0.21602,0.5925 0.21603,0.4937 0.75609,0.3949 l 1.29613,-0.2962 q 1.51217,-0.2962 2.16024,-1.2836 1.94421,-1.5799 3.56439,-4.1472 0.86409,-1.5798 1.40415,-3.3572 0.64808,-1.6787 1.08012,-3.3573 0.21603,-0.6912 1.08012,-4.4433 0.21602,-2.2711 0.10801,-3.456 0.32404,-1.2836 0.32404,-2.7648 0,-1.0861 -0.10801,-1.6786 l -0.32404,-3.7521 q -0.54006,-2.4686 -1.18813,-3.851 -0.54006,-1.3824 -1.72819,-3.061 l -2.16023,-2.3698 -0.8641,-0.4937 -0.54006,1.7774 q 0,0.7899 -0.64807,1.9748 -0.21602,1.1849 -0.64807,1.9748 -0.21602,0.5925 -0.43205,1.3825 -0.21602,0.7898 -0.54006,1.3823 -0.21602,0.4937 -0.75608,0.7899 0.10801,0.2963 0.32404,0.6912 0.32403,0.2962 0,0.6912 l -2.16024,9.183 q 0,0.099 -0.32403,0.395 0.10801,0.099 0.10801,0.3949 0,0.2963 -0.43205,0.6912 0.21603,0.099 0.21603,0.1975 0.10801,0.1975 0.21602,0.2962 v 0.5925 l 0.10801,0.1975 q -0.21602,0.7899 -0.64807,2.271 -0.32404,1.4812 -0.21602,2.1724 l 0.10801,0.6912 q 0,0.1974 -0.43205,1.3823 0.10801,0.099 0.10801,1.3824 0,0.79 -0.10801,0.9874 0.10801,0.099 0.21602,0.6912 0.10802,0.5925 -0.21602,0.8887 z"
             id="path33589-7"
             style="font-size:183.312px;font-family:'Madelyn Fill-Trial';-inkscape-font-specification:MadelynFill-Regular;fill:#9bb49a;stroke-width:1.76054" /><path
             d="m 172.05627,1504.2988 q -2.37625,0.4937 -4.21246,0.4937 -5.29257,0 -10.58515,-3.3572 -3.78041,-2.6661 -7.23679,-7.8993 -0.43205,-0.6913 -0.86409,-1.3825 -0.32404,-0.6912 -0.64807,-1.1849 -0.32404,-0.6911 -1.18814,-2.0735 0,-0.79 -0.21602,-0.9874 -2.26825,-3.1598 -4.75252,-9.3805 0,-0.5924 0.10801,-0.8887 0,-0.4937 0.43205,-1.2836 0.97211,-1.2837 2.37626,-1.2837 1.51216,0 2.26825,0.6912 3.56439,-0.7899 5.61661,-2.5673 0.21603,-0.099 0.54006,-0.1974 0.32404,-0.1976 0.64807,-0.395 0.43205,-0.1975 0.8641,-0.395 0.54005,-0.2962 0.9721,-0.4937 0.43205,-0.2962 1.51217,-1.0861 1.08012,-0.8887 2.05222,-1.3824 0.54006,-0.2963 1.72819,-1.3824 0.21602,-0.2963 0.64807,-0.8887 0.54006,-0.6912 1.18813,-0.79 0.21602,0 0.21602,-0.2962 0.21603,-0.2962 1.62018,-2.1723 1.18813,-1.2836 1.62017,-2.0735 3.02434,-4.1472 3.02434,-8.7881 0,-0.6912 -0.21603,-2.4685 -0.9721,-3.7522 -4.10444,-6.517 -2.91632,-2.666 -8.2089,-2.666 -2.91632,0 -4.96854,0.4937 -2.16024,0.099 -3.56439,0.2962 -1.29614,0.1975 -2.48428,0.6912 -0.43204,0.099 -0.9721,0.2962 -0.54006,0.1975 -1.08011,0.2962 -0.10802,0.099 -0.32404,0.2963 -0.21602,0.099 -0.43205,0.099 -1.29614,0.395 -3.88842,1.7774 -0.64807,0.2962 -1.40416,0.6912 -0.75608,0.3949 -1.72819,0.7899 -0.10801,0.099 -0.32403,0.099 -0.21603,0 -0.32404,0.099 -0.54006,0.395 -2.05222,1.4811 -1.51217,1.0862 -2.80831,2.1724 -1.18813,0.9874 -2.05222,2.1723 -2.48427,3.061 -2.80831,3.4559 -1.40415,2.0736 -1.29614,4.2459 0.10801,0.1975 0.10801,0.4937 0,0.79 -1.51216,1.9749 -0.10801,0.099 -0.32404,0.099 -0.75608,0 -1.18813,-0.395 -0.21602,-0.6912 -0.75608,-1.7773 -0.54006,-1.0862 -0.64807,-1.9748 l -0.10802,-0.4938 q 0,-0.4937 0.21603,-1.1848 0.32403,-0.6912 0.43205,-0.9875 0.32403,-0.7899 1.72819,-2.666 3.13234,-3.2585 6.91275,-6.122 4.32047,-3.1597 8.53293,-5.2333 4.75252,-2.3698 10.0451,-2.9622 2.8083,-0.395 8.42492,-0.395 3.24035,0 5.72462,1.0862 4.75252,2.3698 7.12878,5.2333 1.29614,1.4811 2.37626,4.3446 0.75608,2.0736 0.75608,4.5421 0,1.6786 -0.54006,4.1472 -0.43204,1.4811 -1.94421,4.2459 -1.72819,3.1597 -6.04866,6.6157 -3.6724,2.9622 -7.23679,4.3446 -0.64807,0.2962 -3.34836,1.4811 -2.59229,1.0862 -5.07656,1.7774 0.21603,0.395 0.75609,1.4811 0.64807,1.0861 0.43204,2.0736 0.10802,0.6911 0.97211,1.5799 -0.10801,0.1974 -0.10801,0.4936 0,0.2963 0.32403,0.8887 0.32404,0.395 1.40415,2.4686 0,0.099 -0.10801,0.099 l 0.43205,1.1849 q 2.48427,5.0358 5.94065,9.3805 4.32047,4.7396 11.44925,5.8257 2.05222,0.099 3.45637,-0.1974 1.40416,-0.2962 2.7003,-1.1849 0.64807,-0.395 1.8362,-1.4812 l 0.10801,0.2963 q 0,0.4937 -0.43205,0.8886 -2.48426,2.7648 -5.5086,3.6535 z m -45.14892,-16.5887 q 1.18813,-1.481 1.18813,-3.7521 v -0.2962 l 0.21602,-0.79 q 0.21603,-0.4937 0.97211,-2.1723 0.86409,-1.6786 1.08011,-3.2585 v 0.099 q 0.21602,-0.395 0.8641,-1.5799 0.75608,-1.1849 0.75608,-2.1723 1.40416,-1.8761 1.8362,-3.7522 -0.21602,-0.7899 -0.21602,-0.9874 0,-0.4937 0.32403,-0.9874 0.43205,-0.5925 0.64807,-0.8887 0.43205,-0.5925 0.8641,-1.5799 0.43204,-0.9874 0.75608,-1.6786 0.43205,-1.1849 1.51217,-3.5547 l 1.94421,-4.8384 q 0.43204,-0.5924 0.54006,-1.2836 0.21602,-0.7899 0.32403,-1.1849 -0.64807,-1.3824 -0.64807,-2.271 0,-0.6912 0.32404,-1.3824 2.48427,-0.9874 6.15667,-0.79 0.86409,0 1.51216,0.6912 0.64808,0.6912 0.64808,1.4812 0,0.2962 -0.10802,0.9874 -0.10801,0.6912 -0.32403,1.0861 -0.32404,0.5925 -0.75609,1.4812 -0.43204,0.8886 -0.75608,1.3824 -1.51216,3.2584 -4.10445,7.8005 -1.94421,4.1472 -6.48071,12.639 -1.62017,3.2584 -2.37625,5.332 -0.64807,0.9874 -0.97211,2.9623 l -0.75608,2.7648 q -0.32404,1.3824 -0.8641,3.3572 -0.54006,1.9748 -0.54006,3.5547 0,2.9622 1.83621,5.332 0.21602,0.395 -0.32404,0.6912 -0.54006,0.395 -1.29614,0.395 -1.94421,0 -3.24035,-2.5673 -0.54006,-1.1849 -0.97211,-2.5673 -0.43205,-1.2836 -0.43205,-2.3698 0,-0.2962 -0.21602,-1.4811 z"
             id="path33585-1"
             style="font-size:183.312px;font-family:'Madelyn Fill-Trial';-inkscape-font-specification:MadelynFill-Regular;fill:#9bb49a;stroke-width:1.76054" /><path
             d="m 216.01335,1471.319 q -1.29614,1.8761 -4.21246,3.6535 -0.54006,0.3949 -0.97211,0.5924 -0.43204,0.1975 -0.64807,0.2962 -0.9721,0.8887 -1.29614,0.9875 -0.9721,0.8886 -1.18813,0.9874 l -1.62018,1.2836 -2.59228,1.7774 q -0.54006,0.5924 -1.51216,0.9874 -0.8641,0.395 -1.40416,0.7899 -0.43204,0.1975 -0.86409,0.2963 -0.32403,0 -0.64807,0.1974 -0.64807,0.2963 -1.08012,0.2963 -0.10801,0 -0.43205,0.099 -0.21602,0.099 -0.54006,0.099 -0.32403,0 -0.9721,0.099 -0.54006,0.099 -0.8641,0 -0.21602,-0.099 -0.64807,-0.099 -0.32403,-0.099 -0.43204,-0.1975 -0.21602,-0.099 -0.43205,-0.2963 -0.21602,-0.1974 -0.43204,-0.2962 -0.32404,-0.395 -0.97211,-0.8886 -0.64807,-0.5925 -0.8641,-1.185 -0.43205,-0.3949 -0.64807,-0.6912 -0.10801,-0.3949 -0.21602,-0.5924 -0.10802,0 -0.32404,-0.4937 -0.32403,0.1975 -0.75608,0.7899 -0.32403,0.5925 -0.75608,0.5925 -0.10801,0.099 -0.21602,0.2962 -0.10801,0.1975 -0.32404,0.2962 -3.34837,2.2711 -4.75252,2.8635 -1.40415,0.5925 -2.80831,0.5925 -1.40415,0 -2.37625,-0.395 -0.54006,0 -0.8641,-0.099 -0.43205,-0.395 -1.72819,-0.9874 -1.08012,-1.2837 -1.08012,-2.6661 0,-0.4937 0.21602,-1.2836 l 0.75609,-1.7773 0.10801,-0.1975 q 0.10801,-0.4938 0.32404,-0.8887 0.21602,-0.4937 0.32403,-0.8887 l 0.75609,-1.1849 q 0.32403,-0.395 0.43204,-0.6912 0.21603,-0.2962 0.43205,-0.4937 0.97211,-1.3824 2.48427,-2.7648 -0.10801,0.099 1.40415,-1.5798 2.37626,-2.3699 5.18457,-2.6661 2.37626,0.395 3.6724,0.9874 1.29614,0.5925 1.62018,2.0736 l 0.10801,0.5925 q 0,0.7899 -0.54006,1.5798 -0.43205,0.79 -0.64807,1.0862 0.32403,0 1.18813,-0.395 0.97211,-0.4937 1.72819,-0.3949 0.9721,0.2962 1.29614,1.3823 v 0.395 q 0,0.9874 -0.21603,1.4812 -0.10801,0.099 -0.10801,0.2962 0,0.099 -0.10801,0.1974 -0.21602,1.185 -0.21602,1.7774 0,1.4811 0.54005,2.4685 0.21603,0.6912 0.97211,1.0862 0.32404,0.099 0.75608,0 0.21603,-0.099 0.43205,-0.099 0.32404,0 0.75609,-0.1975 1.51216,-0.5924 4.96854,-2.8635 3.24035,-1.8761 4.53649,-2.666 l 2.16024,-1.185 2.70029,-1.5798 q 0.8641,-0.6912 2.7003,-1.6786 l 0.32403,0.1974 z m -38.02015,9.8742 q 2.91632,0 4.21246,-0.4937 1.8362,-0.6912 3.45638,-2.2711 0.10801,-0.099 2.05222,-2.1723 0.64808,-0.7899 1.94421,-2.1723 0.10801,0 0.21603,-0.099 0.21602,-0.1975 0.32403,-0.395 h -0.10801 q -1.62017,-0.099 -1.62017,-2.7648 0,-0.9874 0.21602,-1.8761 -2.16024,0.2963 -4.5365,2.6661 -2.37626,2.271 -3.6724,4.3446 -1.94421,3.061 -2.48427,5.2333 z"
             id="path33587-8"
             style="font-size:183.312px;font-family:'Madelyn Fill-Trial';-inkscape-font-specification:MadelynFill-Regular;fill:#9bb49a;stroke-width:1.76054" /><path
             d="m 278.11629,1471.319 q -1.29614,1.8761 -4.21245,3.6535 -0.54006,0.3949 -0.97211,0.5924 -0.43205,0.1975 -0.64807,0.2962 -0.97211,0.8887 -1.29615,0.9875 -0.9721,0.8886 -1.18812,0.9874 l -1.62018,1.2836 -2.59229,1.7774 q -0.54005,0.5924 -1.51216,0.9874 -0.86409,0.395 -1.40415,0.7899 -0.43205,0.1975 -0.8641,0.2963 -0.32403,0 -0.64807,0.1974 -0.64807,0.2963 -1.08012,0.2963 -0.10801,0 -0.43204,0.099 -0.21603,0.099 -0.54006,0.099 -0.32404,0 -0.9721,0.099 -0.54006,0.099 -0.8641,0 -0.21602,-0.099 -0.64807,-0.099 -0.32404,-0.099 -0.43205,-0.1975 -0.21602,-0.099 -0.43205,-0.2963 -0.21602,-0.1974 -0.43205,-0.2962 -0.32403,-0.395 -0.9721,-0.8886 -0.64807,-0.5925 -0.86409,-1.185 -0.43205,-0.3949 -0.64807,-0.6912 -0.10801,-0.3949 -0.21603,-0.5924 -0.10801,0 -0.32403,-0.4937 -0.32404,0.1975 -0.75609,0.7899 -0.32403,0.5925 -0.75608,0.5925 -0.10801,0.099 -0.21602,0.2962 -0.10802,0.1975 -0.32404,0.2962 -3.34836,2.2711 -4.75252,2.8635 -1.40415,0.5925 -2.8083,0.5925 -1.40416,0 -2.37626,-0.395 -0.54006,0 -0.8641,-0.099 -0.43205,-0.395 -1.72818,-0.9874 -1.08012,-1.2837 -1.08012,-2.6661 0,-0.4937 0.21602,-1.2836 l 0.75608,-1.7773 0.10802,-0.1975 q 0.10801,-0.4938 0.32403,-0.8887 0.21602,-0.4937 0.32404,-0.8887 l 0.75608,-1.1849 q 0.32403,-0.395 0.43204,-0.6912 0.21603,-0.2962 0.43205,-0.4937 0.97211,-1.3824 2.48428,-2.7648 -0.10802,0.099 1.40415,-1.5798 2.37626,-2.3699 5.18456,-2.6661 2.37626,0.395 3.67241,0.9874 1.29613,0.5925 1.62017,2.0736 l 0.10801,0.5925 q 0,0.7899 -0.54006,1.5798 -0.43204,0.79 -0.64807,1.0862 0.32404,0 1.18813,-0.395 0.97211,-0.4937 1.72819,-0.3949 0.97211,0.2962 1.29614,1.3823 v 0.395 q 0,0.9874 -0.21602,1.4812 -0.10801,0.099 -0.10801,0.2962 0,0.099 -0.10801,0.1974 -0.21603,1.185 -0.21603,1.7774 0,1.4811 0.54006,2.4685 0.21603,0.6912 0.97211,1.0862 0.32403,0.099 0.75608,0 0.21602,-0.099 0.43205,-0.099 0.32403,0 0.75608,-0.1975 1.51216,-0.5924 4.96854,-2.8635 3.24036,-1.8761 4.5365,-2.666 l 2.16023,-1.185 2.7003,-1.5798 q 0.86409,-0.6912 2.70029,-1.6786 l 0.32404,0.1974 z m -38.02015,9.8742 q 2.91632,0 4.21246,-0.4937 1.8362,-0.6912 3.45638,-2.2711 0.10802,-0.099 2.05222,-2.1723 0.64807,-0.7899 1.94422,-2.1723 0.10801,0 0.21602,-0.099 0.21603,-0.1975 0.32404,-0.395 h -0.10801 q -1.62018,-0.099 -1.62018,-2.7648 0,-0.9874 0.21602,-1.8761 -2.16023,0.2963 -4.53649,2.6661 -2.37626,2.271 -3.6724,4.3446 -1.94422,3.061 -2.48428,5.2333 z"
             id="path33591-9"
             style="font-size:183.312px;font-family:'Madelyn Fill-Trial';-inkscape-font-specification:MadelynFill-Regular;fill:#9bb49a;stroke-width:1.76054" /><path
             d="m 298.96038,1476.0586 q -0.10801,0.099 -0.32403,0.395 -0.10802,0.1975 -0.43205,0.395 l -0.32404,0.395 q -0.75608,0.2962 -0.32403,0.6912 -0.10801,0.099 -0.54006,0.3949 -0.32404,0.1975 -0.43205,0.7899 v 0.099 q -0.10801,0.2962 -0.64807,0.7899 l -1.40416,1.0861 -2.05221,1.4812 q -0.97211,0.4937 -2.26826,1.2836 -0.54005,0.2963 -1.40415,0.79 -0.86409,0.5924 -1.51216,0.7899 -0.54006,0.1975 -1.18813,0.2962 -0.64807,0.099 -0.97211,0.099 -0.43205,0 -0.97211,0.2962 -0.32403,0.1975 -1.62017,0.395 -1.08012,0.2962 -2.05222,0.2962 -1.51217,0 -3.6724,-0.5924 -1.51217,-0.4938 -2.48428,-1.185 -0.10801,-0.1974 -0.32403,-0.2962 -0.10802,0 -0.21603,-0.099 -0.75608,-0.4937 -1.83619,-1.9749 -0.21603,-0.1975 -0.43205,-1.1849 -0.43205,-0.8886 -0.43205,-1.9748 0,-3.2585 1.72819,-6.3195 0.86409,-1.1849 1.40415,-1.7773 l 2.91632,-3.061 q 1.62017,-1.4812 3.56439,-1.5799 0.21602,0 1.08012,-0.1975 0.21602,-0.099 0.64807,-0.099 0.64807,0 1.29614,0.3949 0.64807,0.2963 0.86409,0.395 1.18813,0.4937 2.59229,1.5799 0.64807,0.395 0.9721,1.3824 0.32404,0.9874 0.10801,1.5798 -0.32403,0.79 -0.86409,1.2837 l -2.91632,2.7647 q -0.21602,0.1975 -0.64807,0.395 -0.32404,0.099 -0.43205,0.2962 -0.10801,0.5925 -0.64807,0.79 -0.54005,0.099 -0.64807,0.1975 l -1.51216,0.9874 q -0.10801,0.099 -0.10801,0.2962 0,0.099 -0.10802,0.1975 -0.54006,0.2962 -1.18813,0.5925 -0.54006,0.1974 -1.08012,0.4936 -0.10801,0 -0.75608,0.5925 l -1.94421,0.8887 q 0.32404,0.8886 0.54006,1.1849 0.32404,0.2962 0.97211,0.4937 0.86409,-0.099 2.05222,-0.099 1.29614,0 2.16024,-0.099 0.75608,-0.099 1.62017,-0.395 0.97211,-0.2962 1.29614,-0.3949 l 2.48428,-0.9874 q 0.32403,-0.099 0.75608,-0.1976 0.54006,-0.099 0.86409,-0.2962 l 3.56439,-1.876 0.32404,-0.1975 4.10444,-2.2711 q 1.08012,-0.4937 1.29615,-0.6912 l 3.6724,-2.4685 0.21602,0.6912 q 0,0 0,0.099 0.10801,0 0.10801,0 l -0.86409,0.6912 z m -21.81838,0.4937 2.91632,-2.1723 2.91632,-2.3698 q 0.75608,-0.5924 1.51216,-1.7773 0.10801,-0.099 0.10801,-0.395 0,-0.2962 -0.32403,-0.5924 -0.21603,-0.2963 -0.43205,-0.1975 -0.54006,0.1975 -1.40415,0.3949 -0.86409,0.1975 -1.40415,0.5925 -0.43205,0.2962 -1.29615,0.8887 -0.86409,0.4937 -1.40415,1.1848 -1.18813,1.4812 -2.26825,3.456 -0.32403,0.6912 -0.75608,2.0736 z"
             id="path33593-2"
             style="font-size:183.312px;font-family:'Madelyn Fill-Trial';-inkscape-font-specification:MadelynFill-Regular;fill:#9bb49a;stroke-width:1.76054" /><path
             d="m 313.43228,1491.3636 q -1.29614,0.1975 -1.72819,0.1975 -1.29614,0 -2.59228,-0.5925 -0.75608,-0.2962 -1.62018,-1.0861 l -1.62018,-1.8761 q -0.32403,-0.4937 -0.64807,-1.2837 -0.32403,-0.6912 -0.54006,-1.0861 -0.32403,-0.8887 -0.75608,-3.061 -0.21602,-2.5673 -0.21602,-3.3572 0,-0.8887 0.21602,-3.6535 0.21603,-3.061 0.8641,-6.2207 l 0.64807,-3.2585 q 0,-0.5925 0.21602,-1.3823 l 0.75608,-2.9623 q 0.21603,-0.5925 0.43205,-1.6786 0.32404,-1.185 0.64807,-2.0736 0.32404,-1.0862 0.8641,-2.4686 l 0.64807,-1.9748 q 0.32403,-0.5924 0.54006,-1.1849 0.32403,-0.6912 0.64807,-1.1849 0.10801,-0.2962 0.21602,-0.7899 0.10801,-0.5925 0.43205,-0.9874 0.43204,-1.0862 1.29614,-3.1598 0.97211,-2.1723 1.40416,-3.2585 0.32403,-0.1974 0.64806,-0.7899 0.32404,-0.5925 0.54006,-0.9874 l 0.75608,-2.2711 0.8641,-1.6786 q 0.10801,-0.099 0.21602,-0.1975 0.10801,-0.099 0.21603,-0.1974 l 4.21245,-7.1094 q 1.29615,-2.1724 2.7003,-3.456 l 2.80831,-2.4685 q 0.86409,-0.79 1.94421,-0.79 0.54006,0 2.05222,0.395 l 1.29614,0.5924 q 0.75609,0.2962 1.51217,0.9874 l 0.64807,0.4938 q 0.21603,0.1974 0,0.3949 0.21603,1.4811 0.32404,1.7774 l -0.10801,1.5798 q 0,0.395 -0.32404,0.79 -0.32404,0.2962 -0.10801,0.6912 l -1.08012,4.937 q 0.21602,0.395 0.21602,0.4938 0,0.2962 -0.21602,0.5924 -0.21603,0.2962 -0.43205,0.395 l 0.21602,0.2962 -1.18813,1.3824 -0.43204,1.6786 q -0.64807,0.8887 -0.64807,0.8887 -0.21602,0.2962 0.10801,0.7899 v 0.2962 q 0,0.6912 -0.32403,1.4812 -0.10802,-0.099 -3.78042,5.9244 l -3.6724,5.6283 -5.83264,6.7145 q -0.10801,0 -0.21602,0 -0.10801,0 -0.10801,0 -0.32404,0.1975 -0.54006,0.5924 -0.10801,0.395 -0.32404,0.5925 l -2.16023,1.8761 q -2.7003,2.666 -4.32047,3.9497 -0.86409,1.1848 -1.29614,3.9496 -0.54006,3.456 -0.54006,5.3321 0,4.5421 1.40415,7.4056 0.32404,0.7899 0.97211,1.5799 0.64807,0.8886 1.18812,1.0862 0.64808,0.2962 1.29615,0.2962 0.86409,0 1.8362,-0.5925 0.9721,-0.5925 1.29614,-0.7899 0.43204,-0.099 0.64807,0 0.21602,0.1974 0.21602,0.5924 0,0.79 -0.75608,1.8761 -0.75608,1.0862 -1.8362,1.3824 z M 310.84,1462.136 q 0.86409,-0.7899 1.40415,-1.6786 1.94421,-2.0735 1.72819,-1.8761 2.59228,-2.8634 3.99644,-4.8383 0.9721,-0.8887 2.26824,-2.666 0.75608,-0.9874 1.29614,-1.8761 0.54006,-0.9875 1.08012,-1.7773 0.54006,-1.0862 0.97211,-1.8762 0.43205,-0.7899 0.75608,-1.4811 l 1.29614,-2.3698 q 1.62018,-3.5547 2.05223,-4.8383 0.97211,-2.1724 1.51217,-5.2334 0.43204,-0.9874 0.64806,-2.4685 0.32404,-1.5799 0.54006,-2.5673 l -0.43204,-0.099 -0.75608,0.5924 q -0.21603,0.395 -0.43205,0.5925 -2.16024,1.9748 -2.7003,2.8635 -1.94421,2.1723 -2.48427,3.4559 -0.32403,0.8887 -1.18813,1.9749 -0.75608,0.9874 -1.08012,1.4811 -0.32404,0.5925 -0.97211,1.4811 -0.54005,0.8887 -0.75608,1.4812 -0.64807,1.1848 -1.51216,3.3572 l -0.64807,1.1849 q -0.32404,0.5924 -0.64807,1.2836 -0.21603,0.6912 -0.43205,1.0862 -0.64807,1.3824 -0.64807,1.7774 -0.10802,0.3949 -0.21603,0.7899 0,0.2962 -0.10801,0.6911 -0.21602,0.4938 -0.64807,1.5799 -0.43204,0.9874 -0.86409,1.6786 -0.21602,0.4938 -0.75608,1.8762 -0.43205,1.3823 -0.97211,2.4685 -0.10801,0.1975 -0.32404,0.4937 -0.10801,0.1974 -0.32403,0.6912 z"
             id="path33595-0"
             style="font-size:183.312px;font-family:'Madelyn Fill-Trial';-inkscape-font-specification:MadelynFill-Regular;fill:#9bb49a;stroke-width:1.76054" /><path
             d="m 366.03246,1471.319 q -1.29614,1.8761 -4.21246,3.6535 -0.54006,0.3949 -0.9721,0.5924 -0.43205,0.1975 -0.64807,0.2962 -0.97211,0.8887 -1.29614,0.9875 -0.97211,0.8886 -1.18813,0.9874 l -1.62018,1.2836 -2.59228,1.7774 q -0.54006,0.5924 -1.51217,0.9874 -0.86409,0.395 -1.40415,0.7899 -0.43205,0.1975 -0.8641,0.2963 -0.32403,0 -0.64807,0.1974 -0.64807,0.2963 -1.08011,0.2963 -0.10801,0 -0.43205,0.099 -0.21602,0.099 -0.54006,0.099 -0.32404,0 -0.97211,0.099 -0.54006,0.099 -0.86409,0 -0.21603,-0.099 -0.64807,-0.099 -0.32404,-0.099 -0.43205,-0.1975 -0.21602,-0.099 -0.43205,-0.2963 -0.21602,-0.1974 -0.43204,-0.2962 -0.32404,-0.395 -0.97211,-0.8886 -0.64807,-0.5925 -0.86409,-1.185 -0.43205,-0.3949 -0.64808,-0.6912 -0.10801,-0.3949 -0.21602,-0.5924 -0.10801,0 -0.32404,-0.4937 -0.32403,0.1975 -0.75608,0.7899 -0.32403,0.5925 -0.75608,0.5925 -0.10801,0.099 -0.21602,0.2962 -0.10801,0.1975 -0.32404,0.2962 -3.34837,2.2711 -4.75252,2.8635 -1.40415,0.5925 -2.8083,0.5925 -1.40416,0 -2.37626,-0.395 -0.54006,0 -0.86409,-0.099 -0.43205,-0.395 -1.7282,-0.9874 -1.08012,-1.2837 -1.08012,-2.6661 0,-0.4937 0.21603,-1.2836 l 0.75608,-1.7773 0.10801,-0.1975 q 0.10802,-0.4938 0.32404,-0.8887 0.21602,-0.4937 0.32404,-0.8887 l 0.75608,-1.1849 q 0.32404,-0.395 0.43205,-0.6912 0.21602,-0.2962 0.43204,-0.4937 0.97211,-1.3824 2.48427,-2.7648 -0.10801,0.099 1.40416,-1.5798 2.37625,-2.3699 5.18456,-2.6661 2.37626,0.395 3.6724,0.9874 1.29615,0.5925 1.62018,2.0736 l 0.10801,0.5925 q 0,0.7899 -0.54006,1.5798 -0.43204,0.79 -0.64807,1.0862 0.32404,0 1.18813,-0.395 0.97211,-0.4937 1.72819,-0.3949 0.9721,0.2962 1.29614,1.3823 v 0.395 q 0,0.9874 -0.21602,1.4812 -0.10802,0.099 -0.10802,0.2962 0,0.099 -0.10801,0.1974 -0.21602,1.185 -0.21602,1.7774 0,1.4811 0.54006,2.4685 0.21602,0.6912 0.97211,1.0862 0.32403,0.099 0.75608,0 0.21602,-0.099 0.43205,-0.099 0.32403,0 0.75608,-0.1975 1.51216,-0.5924 4.96854,-2.8635 3.24035,-1.8761 4.5365,-2.666 l 2.16023,-1.185 2.7003,-1.5798 q 0.86409,-0.6912 2.70029,-1.6786 l 0.32404,0.1974 z m -38.02014,9.8742 q 2.91631,0 4.21246,-0.4937 1.83619,-0.6912 3.45637,-2.2711 0.10801,-0.099 2.05223,-2.1723 0.64807,-0.7899 1.94421,-2.1723 0.10801,0 0.21602,-0.099 0.21602,-0.1975 0.32403,-0.395 h -0.10801 q -1.62017,-0.099 -1.62017,-2.7648 0,-0.9874 0.21602,-1.8761 -2.16023,0.2963 -4.5365,2.6661 -2.37625,2.271 -3.6724,4.3446 -1.94421,3.061 -2.48426,5.2333 z"
             id="path33597-2"
             style="font-size:183.312px;font-family:'Madelyn Fill-Trial';-inkscape-font-specification:MadelynFill-Regular;fill:#9bb49a;stroke-width:1.76054" /></g><g
           id="g67673"
           transform="translate(-18.750001)"><g
             id="g67663"><g
               id="g67478"
               transform="matrix(0.58922379,0,0,0.53865405,73.477178,772.36195)"><g
                 id="g67416"
                 transform="translate(317.1411,-173.91928)"><path
                   d="m 343.15946,1525.1443 q -0.18331,0.3666 -0.54994,0.7332 -0.36662,0.55 -0.91656,0.7333 l -2.74968,1.8331 h 0.36663 v 0.3666 q -2.19975,1.2832 -5.68268,0.9166 l -7.6991,-0.3667 q -1.4665,-0.5499 -5.49936,-2.1997 -3.84955,-1.4665 -4.21617,-1.2832 -2.19975,-0.7332 -4.76612,-2.383 -2.56636,-1.4665 -3.84955,-2.1998 -2.93299,-1.4665 -12.2819,-7.1492 -2.01643,-1.0998 -3.84955,-2.0164 -7.5158,-4.5828 -10.99872,-5.866 l -3.48293,-0.9165 q -3.84955,-0.9166 -6.96586,-0.9166 -5.49936,0 -9.1656,2.1998 -0.54993,0.3666 -1.46649,2.0164 -0.18332,0.3666 -0.91656,0.5499 -0.54994,0.1833 -0.91656,0.55 l -0.54994,1.2831 q -0.73325,0.3667 -1.28318,0.7333 l -0.54994,2.383 q -0.54994,0.7333 -1.28318,1.2832 -0.54994,0.7333 -0.91656,1.4665 -0.91656,1.4665 -1.09988,2.0165 -1.28318,1.6498 -1.83312,3.2996 -0.36662,1.6498 -0.18331,4.3995 -0.54993,0.5499 -1.28318,0.3666 -0.54994,-0.1833 -0.91656,-0.1833 -0.91656,0.3666 -1.4665,-0.7333 -0.36662,-0.3666 -0.91656,-0.9165 -0.54993,-0.55 -0.91656,-1.2832 l -1.28318,-3.8496 -0.36663,-2.1997 q 0,-1.8331 0.54994,-4.5828 0.18331,-0.9166 1.83312,-4.5828 l 2.93299,-3.8496 q 0.73325,-0.7332 2.01643,-2.1997 1.4665,-1.2832 3.48293,-2.1997 l 2.38306,-1.2832 q 2.01643,-0.9166 3.48293,-3.1163 2.19974,-3.8496 4.39948,-8.2491 l 5.86599,-12.4652 2.19974,-4.7661 q -4.39949,2.0164 -8.24904,2.933 l -2.56637,0.5499 q -4.21617,0.9166 -8.24904,0.9166 -0.73324,0 -1.09987,-0.3666 -0.36662,-0.55 -0.73325,-0.7333 -0.36662,-0.7332 -0.73324,-1.6498 -0.36663,-0.9166 -0.91656,-1.2832 v -0.7332 q 0,-1.4665 0.73324,-2.0165 l 2.38306,0.55 q 1.09987,0.1833 2.01643,0.1833 0.91656,-0.1833 1.64981,-0.1833 3.29962,-0.55 3.29962,-0.55 l 5.49936,-1.4665 q 3.1163,-0.9165 5.31604,-1.6498 2.38306,-0.9165 5.13274,-2.5663 3.29962,-7.3325 5.86598,-14.2984 2.74968,-7.3325 6.23261,-15.5815 3.66624,-8.4323 6.0493,-12.2819 6.59923,-10.6321 16.13145,-10.6321 5.49936,0 7.69911,2.5664 2.38305,2.5663 2.38305,6.4159 0,2.0164 -0.73324,5.4994 -0.73325,3.4829 -2.01644,6.0493 -9.1656,18.5145 -33.7294,33.9127 -1.09988,2.933 -2.56637,6.4159 -1.4665,3.2996 -1.83312,4.2162 -2.19975,4.5828 -5.31605,10.6321 -2.93299,5.866 -3.29962,6.2326 l -2.38305,4.7661 -2.19975,3.1163 q 2.933,-0.3666 4.03287,-0.3666 1.46649,0 4.39949,0.3666 2.19974,0.3666 4.03286,0.9166 1.83312,0.5499 3.1163,0.9165 l 2.19975,0.9166 1.64981,1.0998 2.19974,0.7333 2.56637,1.6498 1.09987,0.7332 q 0.54994,0.9166 1.64981,1.6499 1.09987,0.7332 2.19974,0.5499 1.28319,0.1833 2.93299,1.2832 1.64981,1.0998 2.56637,1.4665 l 1.83312,1.6498 q 0.18331,0 0.36663,0 0.18331,0 0.18331,0 1.46649,1.8331 3.66624,2.383 h 0.18331 q 0.73325,0 2.01643,1.2832 0.54994,0 1.28319,0.7333 1.09987,0 1.83312,0.3666 0.73324,0.3666 1.09987,0.9165 0.54993,0.55 0.73325,0.7333 0.36662,0.3666 1.09987,0.3666 0.73325,0 1.28318,0.1833 1.83312,1.0999 4.03287,1.8332 2.38305,0.9165 3.48292,1.4664 1.64981,0.7333 3.66624,0.9166 2.19975,0.1833 3.29962,0.3666 2.56637,0.3667 6.59923,0 l 3.48293,-0.1833 v 0.3666 z m -51.8773,-73.8748 q 6.59924,-5.1327 10.6321,-10.0821 4.21618,-4.9494 7.6991,-11.3654 3.11631,-6.2326 3.11631,-11.5486 0,-1.4665 -0.91656,-2.7497 -0.73325,-1.2832 -2.38306,-1.2832 -0.73325,0 -1.83312,0.3666 -1.09987,0.3667 -1.83312,0.9166 l -2.01643,1.6498 q -0.18331,0.3666 -1.28318,1.2832 -0.91656,0.9165 -2.74968,4.7661 0,0 0,0.1833 -1.83312,3.2996 -2.74968,5.6827 -0.54994,0.5499 -1.09988,2.0164 -0.36662,1.2832 -1.09987,1.8331 0,0 0.18331,0.1833 0.36663,0 0.18332,0.1834 -0.18332,0.3666 -0.54994,1.0998 -0.18331,0.7333 -0.73325,0.9166 v 0.5499 q 0,0.55 -0.36662,1.2832 -0.18331,0.5499 -0.36663,1.2832 0,0.1833 -0.18331,0.1833 -0.18331,0 -0.36662,0.1833 0.36662,-0.1833 0.18331,0.3666 0,0.3667 -0.36662,0.3667 0,0.9165 -5.68268,15.2149 z"
                   id="path33574-9"
                   style="font-size:183.312px;font-family:'Madelyn Fill-Trial';-inkscape-font-specification:MadelynFill-Regular;fill:#9bb49a;stroke-width:3.125" /><path
                   d="m 386.23262,1471.4338 q -2.19974,3.483 -7.14916,6.7826 -0.91656,0.7332 -1.64981,1.0999 -0.73325,0.3666 -1.09987,0.5499 -1.64981,1.6498 -2.19975,1.8331 -1.64981,1.6498 -2.01643,1.8331 l -2.74968,2.3831 -4.39949,3.2996 q -0.91656,1.0999 -2.56637,1.8331 -1.46649,0.7333 -2.38305,1.4665 -0.73325,0.3667 -1.4665,0.55 -0.54993,0 -1.09987,0.3666 -1.09987,0.5499 -1.83312,0.5499 -0.18331,0 -0.73325,0.1833 -0.36662,0.1834 -0.91656,0.1834 -0.54993,0 -1.64981,0.1833 -0.91656,0.1833 -1.46649,0 -0.36663,-0.1833 -1.09987,-0.1833 -0.54994,-0.1834 -0.73325,-0.3667 -0.36663,-0.1833 -0.73325,-0.5499 -0.36662,-0.3666 -0.73325,-0.5499 -0.54993,-0.7333 -1.64981,-1.6498 -1.09987,-1.0999 -1.46649,-2.1998 -0.73325,-0.7332 -1.09987,-1.2832 -0.18332,-0.7332 -0.36663,-1.0998 -0.18331,0 -0.54993,-0.9166 -0.54994,0.3666 -1.28319,1.4665 -0.54993,1.0999 -1.28318,1.0999 -0.18331,0.1833 -0.36663,0.5499 -0.18331,0.3666 -0.54993,0.5499 -5.68267,4.2162 -8.06573,5.3161 -2.38306,1.0999 -4.76611,1.0999 -2.38306,0 -4.03287,-0.7333 -0.91656,0 -1.46649,-0.1833 -0.73325,-0.7333 -2.93299,-1.8331 -1.83312,-2.3831 -1.83312,-4.9495 0,-0.9165 0.36662,-2.383 l 1.28318,-3.2996 0.18332,-0.3666 q 0.18331,-0.9166 0.54993,-1.6499 0.36663,-0.9165 0.54994,-1.6498 l 1.28318,-2.1997 q 0.54994,-0.7333 0.73325,-1.2832 0.36662,-0.5499 0.73325,-0.9166 1.64981,-2.5663 4.21617,-5.1327 -0.18331,0.1833 2.38306,-2.933 4.03286,-4.3995 8.79898,-4.9494 4.03286,0.7332 6.2326,1.8331 2.19975,1.0999 2.74968,3.8496 l 0.18332,1.0998 q 0,1.4665 -0.91656,2.933 -0.73325,1.4665 -1.09988,2.0165 0.54994,0 2.01644,-0.7333 1.6498,-0.9166 2.93299,-0.7332 1.64981,0.5499 2.19974,2.5663 v 0.7333 q 0,1.8331 -0.36662,2.7497 -0.18331,0.1833 -0.18331,0.5499 0,0.1833 -0.18332,0.3666 -0.36662,2.1998 -0.36662,3.2996 0,2.7497 0.91656,4.5828 0.36662,1.2832 1.64981,2.0165 0.54993,0.1833 1.28318,0 0.36663,-0.1833 0.73325,-0.1833 0.54994,0 1.28318,-0.3667 2.56637,-1.0998 8.43236,-5.316 5.49936,-3.4829 7.6991,-4.9494 l 3.66624,-2.1998 4.5828,-2.933 q 1.4665,-1.2832 4.5828,-3.1163 l 0.54994,0.3666 z m -64.52582,18.3313 q 4.94942,0 7.14917,-0.9166 3.1163,-1.2832 5.86598,-4.2162 0.18331,-0.1833 3.48293,-4.0328 1.09987,-1.4665 3.29962,-4.0329 0.18331,0 0.36662,-0.1833 0.36662,-0.3666 0.54994,-0.7333 h -0.18332 q -2.74968,-0.1833 -2.74968,-5.1327 0,-1.8331 0.36663,-3.4829 -3.66624,0.5499 -7.69911,4.9494 -4.03286,4.2162 -6.2326,8.0657 -3.29962,5.6827 -4.21618,9.7156 z"
                   id="path33576-3"
                   style="font-size:183.312px;font-family:'Madelyn Fill-Trial';-inkscape-font-specification:MadelynFill-Regular;fill:#9bb49a;stroke-width:3.125" /><path
                   d="m 381.64617,1504.2467 q -0.91656,-0.3666 -2.38305,-2.0164 -1.28319,-1.6498 -1.09988,-2.5664 1.64981,-9.3489 1.64981,-9.3489 2.38306,-8.249 2.74968,-9.7155 0.18331,-0.3667 1.09987,-6.416 0,-0.5499 -0.18331,-0.5499 -0.36662,-0.7333 -0.36662,-1.0999 l 0.18331,-1.6498 q 0.18331,-1.4665 1.09987,-1.4665 3.48293,0 5.86598,3.6663 l 0.18332,0.3666 q -0.36663,1.6498 -0.73325,4.2162 -0.36663,3.1163 -0.54994,3.4829 l -1.28318,3.6662 -0.18331,0.7333 q 0.18331,-0.1833 0.18331,-0.1833 2.93299,-4.3995 6.04929,-7.5158 1.83312,-2.1998 3.84956,-3.6663 0.91656,-0.5499 2.93299,-0.7332 1.28318,0 2.38305,0.3666 0.36663,0 1.28319,0.5499 1.09987,0.55 2.56637,1.2832 0,0.3667 0,1.2832 0.18331,0.7333 0.73324,0.9166 0.18332,0 0,0.3666 0,0.3666 0,0.7332 0.91656,2.3831 1.09988,4.9495 0,1.4665 -0.36663,4.3995 0,0.1833 0,0.7332 0.18331,0.3666 0,0.7333 0.18331,1.2831 0.18331,4.0328 l 0.54994,1.8331 q 0,0.3667 0.73325,1.0999 h 0.54993 l 3.84956,-2.0164 q 1.83312,-0.55 3.1163,-1.6498 l 17.04802,-16.3148 q 0.91656,0 1.28318,0.5499 0.36662,0.55 -0.36662,1.2832 l -1.64981,2.5664 q -0.18331,0.5499 -0.36663,1.2832 -0.18331,0.5499 -0.36662,1.0998 -0.73325,1.2832 -1.83312,2.1998 l -3.1163,3.6662 q 0,0.1833 -0.18332,0.7333 -0.18331,0.3666 -0.91656,0.7332 l 0.18332,0.55 q -0.18332,0.1833 -0.54994,0.1833 -0.18331,0 -0.18331,0.1833 -0.54994,1.0999 -1.83312,2.1997 -1.09987,1.0999 -1.64981,1.6498 -1.4665,1.6498 -4.39949,3.6663 -2.01643,1.4665 -4.76611,1.8331 -2.74968,0.3666 -3.66624,0.5499 h -0.18331 q -0.36663,-0.1833 -1.28319,-0.5499 -0.73324,-0.1833 -1.46649,-1.0999 -2.93299,-2.1997 -3.84955,-5.316 -1.64981,-5.866 -1.28319,-10.4488 l 0.18331,-3.2996 q -0.73324,-0.9166 -0.91656,-1.0999 -0.36662,1.4665 -0.91656,2.0164 -0.54993,0.55 -1.6498,0.7333 -0.54994,2.0164 -2.56637,2.933 v 0.1833 q 0,0.7332 -0.73325,1.2832 -0.54994,0.5499 -0.91656,1.0998 -0.18331,0.3667 -0.73325,0.9166 -0.36662,0.5499 -0.18331,0.5499 l -0.91656,1.2832 q -0.73325,1.0999 -2.19974,3.8496 -1.28319,2.7497 -2.38306,4.9494 -1.09987,1.4665 -2.38306,1.4665 l -0.54993,1.2832 q 0,0 -0.54994,0.5499 -0.54993,1.0999 -1.28318,1.2832 -0.54994,0.3666 -1.64981,0 z"
                   id="path33578-1"
                   style="font-size:183.312px;font-family:'Madelyn Fill-Trial';-inkscape-font-specification:MadelynFill-Regular;fill:#9bb49a;stroke-width:3.125" /><path
                   d="m 463.58368,1496.5476 q -3.48293,2.1997 -7.33248,2.1997 -2.38306,0 -4.39949,-1.0998 -2.01643,-1.0999 -2.74968,-2.933 -1.83312,-3.2996 -1.28318,-6.9659 0.73325,-7.1491 1.64981,-10.2654 1.46649,-5.4994 1.83312,-8.0658 v -0.5499 q 0,-1.0999 -0.91656,-1.0999 -0.73325,0 -2.56637,0.9166 -2.19975,0.9165 -3.84955,2.0164 -1.4665,1.0999 -2.01644,1.4665 -2.01643,1.2832 -3.1163,2.3831 -0.91656,1.0998 -1.4665,1.6498 -0.73324,1.8331 -1.28318,4.0328 l -1.28318,6.2326 q 0,0.55 -0.73325,3.8496 -0.18331,0.3666 -0.54994,1.4665 -0.18331,1.0999 -0.54993,1.0999 -1.09988,0 -2.56637,-0.3667 -1.28319,-0.3666 -2.19975,-0.9165 -0.18331,-0.7333 0.36663,-4.0329 0.54993,-3.4829 0.73325,-4.3995 1.28318,-6.5992 3.1163,-15.3982 1.83312,-8.9823 2.74968,-12.6485 l 0.54994,-2.0165 -0.54994,0.3667 q -1.09987,0.5499 -3.48293,2.1997 -2.38305,1.4665 -3.1163,1.4665 -0.36663,0 -0.91656,-0.1833 -0.36663,-0.3666 -0.54994,-0.7332 -0.18331,-0.1834 -0.18331,-1.6499 0,-3.6662 0.73325,-4.2161 5.68267,-3.483 10.99872,-8.0658 0.54993,-0.9165 0.54993,-1.2831 0.18332,-0.3667 0.18332,-0.7333 v 0.1833 q 2.93299,-8.4323 4.5828,-13.9317 1.6498,-4.9494 6.04929,-15.2149 0.54994,-1.6498 2.01643,-4.9494 0.54994,-1.8331 1.83312,-1.6498 -0.73324,-0.1833 -0.91656,-0.5499 0,-0.3667 0.73325,-0.7333 1.4665,-3.2996 3.11631,-6.0493 1.09987,-2.3831 2.19974,-4.0329 1.09987,-1.8331 1.83312,-3.2996 1.4665,-2.7497 2.38306,-3.6662 0.54993,-1.6498 0.54993,-2.3831 0.18331,-0.1833 0.54994,-0.1833 0.54993,-0.1833 1.09987,-0.5499 1.09987,-1.2832 2.01643,-2.7497 1.09987,-1.4665 2.38306,-3.1163 -0.73325,0 -1.09987,-0.1833 1.46649,-0.55 2.01643,-1.0999 h -0.73325 l 2.56637,-3.2996 q 2.01643,-2.0164 2.93299,-2.3831 4.39949,-4.9494 9.89885,-6.7825 1.64981,-0.5499 2.93299,-0.5499 2.38306,0 4.94942,1.4665 1.4665,0.5499 2.19975,2.383 0.91656,1.8331 0.54993,3.2996 -0.18331,0.55 -0.18331,0.9166 0.18331,0.1833 0,0.5499 l 0.36663,0.7333 -1.83312,5.4993 q -0.18332,0.1833 -0.36663,0.55 -0.18331,0.1833 -0.18331,0.5499 v 0.9166 q -2.01643,2.0164 -2.56637,5.4993 -0.73325,3.2996 -2.56637,4.2162 -0.73324,0.7332 -1.83312,2.7497 -0.91656,2.0164 -1.83312,2.933 -1.46649,1.4665 -2.93299,3.8495 -1.46649,2.3831 -2.38305,3.8496 -1.28319,1.4665 -2.38306,3.4829 l -2.56637,3.4829 q -2.19974,3.6663 -5.68267,8.0658 -1.28318,1.6498 -8.24904,10.4487 -0.54994,0.9166 -1.83312,2.1998 -1.28318,1.2832 -2.01643,2.1997 -2.56637,2.5664 -3.11631,2.933 l -3.29961,3.6663 q -4.5828,5.1327 -4.76611,5.316 -0.91656,0.7333 -1.64981,2.1998 -0.36663,2.0164 -0.91656,3.2996 -0.18331,0.9165 -0.91656,3.1163 -0.73325,2.0164 -1.28319,4.2162 -0.91656,4.7661 -2.38305,9.8988 0.73325,-0.7332 3.66624,-2.933 4.21617,-2.7497 6.23261,-3.4829 2.01643,-0.7333 4.21617,-0.7333 2.01643,0 3.11631,0.3667 1.09987,0.1833 2.01643,1.2831 1.28318,1.2832 1.09987,3.1163 0.18331,0.3667 0.18331,1.4665 0,0.9166 -0.36662,2.3831 -0.18331,1.4665 -0.36663,2.5664 -0.18331,1.4665 -0.54993,2.7496 -0.36663,1.2832 -0.54994,2.3831 -0.91656,2.0164 -1.09987,4.0329 -1.09987,5.4993 -1.09987,8.249 0,2.7497 1.28318,3.4829 3.11631,0.3667 6.96586,-1.8331 1.46649,-0.9165 4.5828,-3.2996 3.1163,-2.5664 5.13273,-4.3995 3.84956,-3.6662 6.78255,-6.7825 4.39949,-4.3995 4.39949,-4.3995 l 2.01643,-2.0165 0.73325,-0.1833 -1.09988,3.2997 q 0,0.1833 0.36663,0.1833 -0.36663,0.5499 -1.09987,1.8331 -0.73325,1.0999 -0.91656,2.1997 l 0.18331,0.1833 q -0.91656,1.4665 -4.39949,5.4994 -3.48293,3.4829 -3.48293,3.4829 -0.54993,0.3667 -2.93299,2.7497 -2.38306,2.1998 -6.23261,4.9494 z m -15.76483,-61.2262 q -0.18331,0.1833 0.18331,0.1833 0,0 6.0493,-7.1492 0.73324,-0.7332 4.03286,-4.3995 2.19974,-2.383 5.86598,-7.5157 1.09988,-1.6499 3.66624,-4.9495 5.68268,-7.6991 6.59924,-8.9823 0.54993,-0.9165 1.83312,-2.383 1.28318,-1.4665 1.6498,-2.7497 0,-0.9166 0.91656,-1.8331 1.28319,-0.7333 1.28319,-2.3831 h 0.36662 q 0.54994,0 0.54994,-0.5499 0.18331,-0.5499 0.18331,-0.7333 0.18331,-0.3666 0.36662,-0.7332 0.18332,-0.5499 0.36663,-1.0999 1.46649,-1.4665 1.64981,-2.0164 0.91656,-0.3666 0.91656,-0.1833 -0.36663,-0.7333 -0.18332,-0.9166 0.36663,-0.5499 1.09988,-1.4665 0.73324,-0.9165 0.73324,-1.4665 1.83312,-2.383 3.29962,-6.2326 1.64981,-4.0328 1.64981,-6.7825 0,-1.0999 -0.36663,-2.1998 -0.36662,0 -0.36662,-0.1833 -1.83312,0.55 -4.21618,2.3831 -2.38305,1.6498 -4.5828,3.6662 l -3.29961,2.933 -3.11631,4.0329 q -1.46649,1.4665 -1.46649,1.4665 -0.91656,0.9165 -2.38306,2.933 -2.93299,3.6662 -4.03286,5.6826 -1.64981,2.3831 -3.29962,5.866 -1.09987,1.0999 -1.28318,1.6498 -1.83312,3.2996 -2.56637,4.9495 -0.73325,0.7332 -1.64981,3.2996 -0.91656,1.6498 -1.64981,4.0328 0,0.3667 -0.54993,0.9166 -0.36663,0.3666 -0.36663,0.5499 v 0.1833 q 0,0.7333 -1.09987,2.0165 -0.91656,1.0998 -0.54993,1.8331 -0.18332,0 -0.36663,0.1833 0,0 0,0.1833 -0.18331,0.7333 -0.91656,2.1998 -0.91656,0.5499 -1.09987,2.1997 -0.18331,1.4665 -0.36662,2.1997 -0.73325,1.2832 -1.4665,4.9495 -1.28318,2.933 -1.28318,4.3995 -0.73325,1.8331 -0.73325,2.0164 z"
                   id="path33580-9"
                   style="font-size:183.312px;font-family:'Madelyn Fill-Trial';-inkscape-font-specification:MadelynFill-Regular;fill:#9bb49a;stroke-width:3.125" /><path
                   d="m 495.84303,1455.669 q -0.36662,-0.1833 -0.91656,-0.3666 -0.54994,-0.3666 -1.09987,-0.9166 -1.64981,-1.8331 -1.09987,-4.5828 0.54993,-1.8331 1.83312,-2.933 1.28318,-1.2831 3.48292,-2.383 0.18332,-0.1833 0.91656,-0.1833 h 0.73325 q 2.19975,0 2.74968,1.6498 0.18331,0.3666 0.54994,1.6498 0.36662,1.2832 0.36662,2.3831 0,2.0164 -0.91656,3.1163 -0.91656,1.0998 -2.01643,2.0164 -1.09987,0.7332 -1.4665,0.9165 -0.36662,0.1834 -1.28318,0.1834 -0.73325,0 -1.83312,-0.55 z m -11.36534,40.512 q -0.36663,-3.6663 1.28318,-9.8989 0.36662,-2.383 1.83312,-7.1491 0.18331,-0.9166 2.56637,-9.8989 v -1.4665 q -0.36663,-1.2832 0.73325,-1.2832 0.18331,0 0.54993,-0.1833 0.54994,-0.1833 1.09987,0.5499 0.36663,0.3667 1.28319,1.0999 0.91656,0.7333 1.09987,1.2832 1.64981,1.2832 2.01643,2.0164 0.54994,1.0999 0.18331,2.7497 0,1.0999 -0.73324,2.933 -0.36663,1.2832 -2.01644,6.7826 -0.73324,1.4664 -0.91656,2.1997 -0.36662,0.7332 -0.36662,0.9166 0.18331,0.3666 0.18331,0.9165 0,0.9166 -0.36662,2.1998 -0.36663,1.0998 -0.54994,2.0164 0,0.9166 -0.36662,2.5664 -0.18331,1.4665 -0.36663,2.5663 3.11631,-0.9165 5.13274,-2.5663 l 2.93299,-2.5664 q 4.03287,-3.2996 6.0493,-5.3161 l 4.76611,-4.5827 q 0,0 3.48293,-3.483 6.59923,-6.0493 6.96585,-6.4159 0.36663,0.3666 0.36663,0.9166 0,0.9165 -0.73325,2.1997 l -0.18331,0.1833 q -0.36663,0.55 -2.56637,3.8496 -2.01643,3.1163 -2.74968,4.0328 -0.36662,0.55 -1.28318,2.3831 -0.73325,1.6498 -2.38306,3.8495 l -2.01643,2.933 -0.91656,1.2832 -0.91656,0.9166 q -1.83312,1.0999 -3.84955,3.8495 -0.91656,1.0999 -2.74968,2.3831 -0.54994,0.5499 -1.64981,0.7332 -0.91656,0.3667 -1.28319,0.55 l -3.66624,1.8331 -0.91656,0.1833 q -0.91656,0 -2.74968,-0.7332 -1.28318,-0.1834 -2.19974,-1.2832 -0.91656,-1.0999 -1.64981,-1.6498 -0.18331,-0.1834 -0.36662,-0.55 -0.18331,-0.3666 -0.18331,-0.5499 -0.18332,-0.7333 -0.91656,-1.4665 -0.18332,-0.55 -0.54994,-0.9166 -0.18331,-0.3666 -0.36662,-0.9165 z"
                   id="path33582-4"
                   style="font-size:183.312px;font-family:'Madelyn Fill-Trial';-inkscape-font-specification:MadelynFill-Regular;fill:#9bb49a;stroke-width:3.125" /></g></g></g></g></g></g></g></svg>
