<?xml version="1.0" encoding="UTF-8" standalone="no"?>
<svg
   viewBox="0 0 512 384"
   version="1.1"
   id="svg496"
   sodipodi:docname="email-white.svg"
   inkscape:version="1.2.1 (9c6d41e410, 2022-07-14)"
   xml:space="preserve"
   width="512"
   height="384"
   xmlns:inkscape="http://www.inkscape.org/namespaces/inkscape"
   xmlns:sodipodi="http://sodipodi.sourceforge.net/DTD/sodipodi-0.dtd"
   xmlns="http://www.w3.org/2000/svg"
   xmlns:svg="http://www.w3.org/2000/svg"><defs
     id="defs500" /><sodipodi:namedview
     id="namedview498"
     pagecolor="#ffffff"
     bordercolor="#000000"
     borderopacity="0.25"
     inkscape:showpageshadow="2"
     inkscape:pageopacity="0.0"
     inkscape:pagecheckerboard="0"
     inkscape:deskcolor="#d1d1d1"
     showgrid="false"
     inkscape:zoom="0.4609375"
     inkscape:cx="120.40678"
     inkscape:cy="188.74576"
     inkscape:window-width="1920"
     inkscape:window-height="1011"
     inkscape:window-x="0"
     inkscape:window-y="0"
     inkscape:window-maximized="1"
     inkscape:current-layer="svg496" /><!--! Font Awesome Pro 6.2.1 by @fontawesome - https://fontawesome.com License - https://fontawesome.com/license (Commercial License) Copyright 2022 Fonticons, Inc. --><path
     d="m 63.99999,48 c -8.8,0 -16,7.2 -16,16 V 86.1 L 220.5,227.7 c 20.7,17 50.4,17 71.1,0 L 464,86.1 V 64 c 0,-8.8 -7.2,-16 -16,-16 z m -16,100.2 V 320 c 0,8.8 7.2,16 16,16 H 448 c 8.8,0 16,-7.2 16,-16 V 148.2 L 322,264.8 c -38.4,31.5 -93.7,31.5 -132.00001,0 z M 0,64 C 0,28.699998 28.69999,0 63.99999,0 H 448 c 35.3,0 64,28.699998 64,64 v 256 c 0,35.3 -28.7,64 -64,64 H 63.99999 C 28.69999,384 0,355.3 0,320 Z"
     id="path42821"
     style="fill:#ffffff;fill-opacity:1" /></svg>
